<svg width="1062" height="204" viewBox="0 0 1062 204" fill="none" xmlns="http://www.w3.org/2000/svg">
<path d="M1030.51 203.477H31.0114C13.8463 203.477 0.0395508 190.051 0.0395508 173.761V30.1931C0.0395508 13.724 13.8463 0.477051 31.0114 0.477051H1030.51C1047.67 0.477051 1061.48 13.724 1061.48 30.1931V173.761C1061.48 190.051 1047.67 203.477 1030.51 203.477Z" fill="#202020"/>
<path d="M111.319 61.1307C114.261 56.9525 120.458 56.9525 123.402 61.1307C124.398 62.5461 125.86 63.5669 127.531 64.0153C129.203 64.4637 130.979 64.3112 132.55 63.5843C137.191 61.4339 142.557 64.5334 143.017 69.6258C143.173 71.349 143.929 72.9629 145.153 74.1861C146.377 75.4094 147.991 76.1646 149.714 76.3201C154.806 76.783 157.904 82.1486 155.755 86.7874C155.028 88.358 154.875 90.1339 155.323 91.8056C155.771 93.4773 156.792 94.9388 158.207 95.9353C162.385 98.8774 162.385 105.074 158.207 108.018C156.791 109.015 155.771 110.476 155.322 112.148C154.874 113.819 155.026 115.595 155.753 117.166C157.904 121.807 154.804 127.173 149.712 127.634C147.988 127.79 146.375 128.545 145.151 129.769C143.928 130.993 143.173 132.607 143.017 134.33C142.554 139.423 137.191 142.52 132.55 140.372C130.979 139.645 129.204 139.492 127.532 139.94C125.86 140.388 124.399 141.408 123.402 142.823C120.46 147.001 114.263 147.001 111.319 142.823C110.323 141.408 108.862 140.387 107.19 139.938C105.518 139.49 103.742 139.642 102.171 140.369C97.5301 142.52 92.1645 139.42 91.7039 134.328C91.5478 132.605 90.7924 130.991 89.5692 129.768C88.346 128.545 86.7325 127.79 85.0096 127.634C79.9171 127.171 76.8177 121.807 78.9681 117.166C79.695 115.595 79.8475 113.819 79.3991 112.148C78.9507 110.476 77.9298 109.015 76.5145 108.018C72.3363 105.076 72.3363 98.8797 76.5145 95.9353C77.9298 94.9391 78.9507 93.4778 79.3991 91.806C79.8475 90.1343 79.695 88.3582 78.9681 86.7874C76.8177 82.1463 79.9171 76.7807 85.0096 76.3201C86.7325 76.1641 88.346 75.4087 89.5692 74.1854C90.7924 72.9622 91.5478 71.3487 91.7039 69.6258C92.1668 64.5334 97.5324 61.4339 102.171 63.5843C105.412 65.082 109.261 64.0496 111.319 61.1307Z" fill="#2BE080"/>
<path d="M229.453 113.227C228.153 113.227 227.113 112.88 226.333 112.187C225.553 111.493 225.163 110.54 225.163 109.327V82.5467C225.163 77.52 226.593 73.5767 229.453 70.7167C232.313 67.8567 236.256 66.4267 241.283 66.4267C243.71 66.4267 245.985 67.0333 248.108 68.2467C250.275 69.4167 252.138 71.1067 253.698 73.3167C255.215 71.0633 257.035 69.3517 259.158 68.1817C261.325 67.0117 263.665 66.4267 266.178 66.4267C271.205 66.4267 275.148 67.8567 278.008 70.7167C280.868 73.5767 282.298 77.52 282.298 82.5467V109.327C282.298 110.497 281.886 111.45 281.063 112.187C280.283 112.88 279.243 113.227 277.943 113.227C276.643 113.227 275.603 112.88 274.823 112.187C274.043 111.493 273.653 110.54 273.653 109.327V82.5467C273.653 79.2533 273.046 76.8917 271.833 75.4617C270.62 73.9883 268.626 73.2517 265.853 73.2517C263.34 73.2517 261.39 74.0533 260.003 75.6567C258.66 77.26 257.988 79.5567 257.988 82.5467V109.327C257.988 110.54 257.598 111.493 256.818 112.187C256.038 112.88 254.998 113.227 253.698 113.227C252.398 113.227 251.358 112.88 250.578 112.187C249.841 111.493 249.473 110.54 249.473 109.327V82.5467C249.473 79.6433 248.78 77.3683 247.393 75.7217C246.006 74.075 244.078 73.2517 241.608 73.2517C238.835 73.2517 236.841 73.9883 235.628 75.4617C234.415 76.8917 233.808 79.2533 233.808 82.5467V109.327C233.808 110.497 233.396 111.45 232.573 112.187C231.793 112.88 230.753 113.227 229.453 113.227ZM307.662 113.227C303.892 113.227 300.533 112.555 297.587 111.212C294.683 109.825 292.408 107.875 290.762 105.362C289.115 102.848 288.292 99.945 288.292 96.6517C288.292 93.3583 289.115 90.455 290.762 87.9417C292.408 85.4283 294.683 83.5 297.587 82.1567C300.533 80.77 303.892 80.0767 307.662 80.0767C311.432 80.0767 314.768 80.77 317.672 82.1567C320.618 83.5 322.915 85.4283 324.562 87.9417C326.208 90.455 327.032 93.3583 327.032 96.6517C327.032 99.945 326.208 102.848 324.562 105.362C322.915 107.875 320.618 109.825 317.672 111.212C314.768 112.555 311.432 113.227 307.662 113.227ZM307.662 106.467C310.998 106.467 313.62 105.6 315.527 103.867C317.477 102.133 318.452 99.7283 318.452 96.6517C318.452 93.575 317.477 91.17 315.527 89.4367C313.62 87.7033 310.998 86.8367 307.662 86.8367C304.325 86.8367 301.682 87.7033 299.732 89.4367C297.825 91.17 296.872 93.575 296.872 96.6517C296.872 99.7283 297.825 102.133 299.732 103.867C301.682 105.6 304.325 106.467 307.662 106.467ZM347.234 113.227C342.078 113.227 338.503 110.345 336.509 104.582L329.619 84.8217C329.489 84.4317 329.424 84.0633 329.424 83.7167C329.424 82.72 329.858 81.875 330.724 81.1817C331.634 80.4883 332.804 80.1417 334.234 80.1417C335.101 80.1417 335.838 80.3367 336.444 80.7267C337.051 81.1167 337.484 81.6583 337.744 82.3517L345.024 103.477C345.371 104.56 345.718 105.34 346.064 105.817C346.411 106.25 346.801 106.467 347.234 106.467C347.668 106.467 348.058 106.25 348.404 105.817C348.751 105.34 349.098 104.56 349.444 103.477L356.724 82.3517C356.984 81.6583 357.418 81.1167 358.024 80.7267C358.631 80.3367 359.368 80.1417 360.234 80.1417C361.708 80.1417 362.878 80.4883 363.744 81.1817C364.611 81.8317 365.044 82.6767 365.044 83.7167C365.044 84.0633 364.979 84.4317 364.849 84.8217L357.959 104.582C355.966 110.345 352.391 113.227 347.234 113.227ZM375.712 76.0467C374.109 76.0467 372.809 75.6133 371.812 74.7467C370.859 73.8367 370.382 72.6667 370.382 71.2367C370.382 69.8067 370.859 68.6583 371.812 67.7917C372.809 66.8817 374.109 66.4267 375.712 66.4267C377.315 66.4267 378.615 66.8817 379.612 67.7917C380.652 68.6583 381.172 69.8067 381.172 71.2367C381.172 72.6667 380.652 73.8367 379.612 74.7467C378.615 75.6133 377.315 76.0467 375.712 76.0467ZM375.777 113.227C374.434 113.227 373.394 112.88 372.657 112.187C371.92 111.493 371.552 110.54 371.552 109.327V83.9767C371.552 82.7633 371.92 81.81 372.657 81.1167C373.394 80.4233 374.434 80.0767 375.777 80.0767C377.077 80.0767 378.117 80.4233 378.897 81.1167C379.677 81.81 380.067 82.7633 380.067 83.9767V109.327C380.067 110.54 379.677 111.493 378.897 112.187C378.117 112.88 377.077 113.227 375.777 113.227ZM404.885 113.227C401.158 113.227 397.908 112.555 395.135 111.212C392.362 109.868 390.217 107.983 388.7 105.557C387.227 103.087 386.49 100.205 386.49 96.9117C386.49 91.5817 388.028 87.4433 391.105 84.4967C394.225 81.55 398.602 80.0767 404.235 80.0767C407.702 80.0767 410.757 80.6183 413.4 81.7017C416.087 82.785 418.167 84.3017 419.64 86.2517C421.157 88.1583 421.915 90.3467 421.915 92.8167C421.915 94.8967 421.243 96.5 419.9 97.6267C418.6 98.7533 416.737 99.3167 414.31 99.3167H394.745C394.745 101.743 395.59 103.585 397.28 104.842C399.013 106.055 401.548 106.662 404.885 106.662C408.395 106.662 411.385 105.882 413.855 104.322C415.242 103.455 416.325 103.022 417.105 103.022C417.842 103.022 418.557 103.368 419.25 104.062C419.987 104.798 420.355 105.6 420.355 106.467C420.355 107.507 419.922 108.33 419.055 108.937C417.235 110.323 415.112 111.385 412.685 112.122C410.258 112.858 407.658 113.227 404.885 113.227ZM411.71 93.3367C412.447 93.3367 412.967 93.2067 413.27 92.9467C413.573 92.6433 413.725 92.1667 413.725 91.5167C413.725 90 412.858 88.8083 411.125 87.9417C409.435 87.075 407.138 86.6417 404.235 86.6417C401.332 86.6417 399.035 87.2483 397.345 88.4617C395.698 89.675 394.875 91.3 394.875 93.3367H411.71ZM443.052 113.227C436.075 113.227 430.94 111.212 427.647 107.182C426.954 106.272 426.607 105.448 426.607 104.712C426.607 103.672 427.149 102.762 428.232 101.982C428.969 101.505 429.684 101.267 430.377 101.267C431.33 101.267 432.219 101.678 433.042 102.502C434.515 103.975 435.945 105.037 437.332 105.687C438.762 106.293 440.517 106.597 442.597 106.597C444.374 106.597 445.869 106.358 447.082 105.882C448.295 105.405 448.902 104.82 448.902 104.127C448.902 103.26 448.404 102.523 447.407 101.917C446.41 101.31 444.395 100.53 441.362 99.5767C436.595 98.1033 433.215 96.565 431.222 94.9617C429.229 93.315 428.232 91.2783 428.232 88.8517C428.232 86.1217 429.402 83.9767 431.742 82.4167C434.082 80.8567 437.31 80.0767 441.427 80.0767C444.59 80.0767 447.45 80.5533 450.007 81.5067C452.564 82.46 454.427 83.7383 455.597 85.3417C456.16 86.0783 456.442 86.815 456.442 87.5517C456.442 88.5917 455.922 89.4367 454.882 90.0867C454.145 90.5633 453.387 90.8017 452.607 90.8017C451.35 90.8017 450.202 90.2817 449.162 89.2417C448.295 88.4183 447.169 87.79 445.782 87.3567C444.439 86.9233 442.965 86.7067 441.362 86.7067C438.329 86.7067 436.812 87.4217 436.812 88.8517C436.812 89.415 437.05 89.9133 437.527 90.3467C438.004 90.78 438.849 91.235 440.062 91.7117C441.319 92.1883 443.269 92.8383 445.912 93.6617C450.159 94.9617 453.127 96.3917 454.817 97.9517C456.55 99.5117 457.417 101.57 457.417 104.127C457.417 106.857 456.16 109.067 453.647 110.757C451.134 112.403 447.602 113.227 443.052 113.227Z" fill="white"/>
<path d="M231.032 142.376C228.452 142.376 226.472 141.706 225.092 140.366C223.732 139.006 223.052 137.076 223.052 134.576C223.052 133.056 223.372 131.736 224.012 130.616C224.652 129.476 225.572 128.606 226.772 128.006C227.972 127.386 229.382 127.076 231.002 127.076C232.522 127.076 233.862 127.326 235.022 127.826C236.202 128.306 237.122 128.986 237.782 129.866C238.442 130.746 238.772 131.756 238.772 132.896C238.772 133.676 238.572 134.286 238.172 134.726C237.772 135.166 237.202 135.386 236.462 135.386H224.672C224.672 137.126 225.232 138.486 226.352 139.466C227.472 140.446 229.032 140.936 231.032 140.936C232.292 140.936 233.352 140.796 234.212 140.516C235.092 140.216 235.892 139.726 236.612 139.046C236.932 138.766 237.172 138.626 237.332 138.626C237.432 138.626 237.552 138.676 237.692 138.776C237.912 138.956 238.022 139.146 238.022 139.346C238.022 139.526 237.952 139.686 237.812 139.826C237.052 140.666 236.092 141.306 234.932 141.746C233.792 142.166 232.492 142.376 231.032 142.376ZM236.042 134.036C236.462 134.036 236.762 133.946 236.942 133.766C237.122 133.586 237.212 133.286 237.212 132.866C237.212 132.046 236.942 131.306 236.402 130.646C235.882 129.966 235.142 129.446 234.182 129.086C233.242 128.706 232.182 128.516 231.002 128.516C228.982 128.516 227.422 128.996 226.322 129.956C225.242 130.916 224.702 132.276 224.702 134.036H236.042ZM254.42 140.966C254.64 141.226 254.75 141.466 254.75 141.686C254.75 141.846 254.67 142.006 254.51 142.166C254.39 142.286 254.25 142.346 254.09 142.346C253.87 142.346 253.64 142.206 253.4 141.926L247.91 135.596L242.39 141.926C242.15 142.206 241.92 142.346 241.7 142.346C241.54 142.346 241.4 142.286 241.28 142.166C241.12 142.006 241.04 141.846 241.04 141.686C241.04 141.466 241.15 141.226 241.37 140.966L246.95 134.516L241.7 128.456C241.5 128.216 241.4 127.996 241.4 127.796C241.4 127.556 241.49 127.376 241.67 127.256C241.83 127.136 241.98 127.076 242.12 127.076C242.34 127.076 242.54 127.196 242.72 127.436L247.91 133.406L253.07 127.436C253.25 127.196 253.45 127.076 253.67 127.076C253.85 127.076 254 127.136 254.12 127.256C254.3 127.376 254.39 127.556 254.39 127.796C254.39 127.996 254.29 128.216 254.09 128.456L248.84 134.516L254.42 140.966ZM259.419 151.046C258.919 151.046 258.669 150.726 258.669 150.086V128.036C258.669 127.396 258.919 127.076 259.419 127.076C259.939 127.076 260.199 127.396 260.199 128.036V130.466C261.679 128.206 263.989 127.076 267.129 127.076C269.589 127.076 271.509 127.746 272.889 129.086C274.289 130.406 274.989 132.236 274.989 134.576C274.989 136.156 274.669 137.536 274.029 138.716C273.389 139.896 272.469 140.806 271.269 141.446C270.089 142.066 268.699 142.376 267.099 142.376C265.639 142.376 264.349 142.106 263.229 141.566C262.109 141.006 261.109 140.166 260.229 139.046L260.199 150.086C260.199 150.726 259.939 151.046 259.419 151.046ZM267.159 140.936C269.119 140.936 270.649 140.366 271.749 139.226C272.869 138.086 273.429 136.506 273.429 134.486C273.429 132.546 272.889 131.066 271.809 130.046C270.749 129.026 269.189 128.516 267.129 128.516C264.969 128.516 263.269 129.056 262.029 130.136C260.809 131.216 260.199 132.696 260.199 134.576C260.199 135.836 260.489 136.946 261.069 137.906C261.649 138.866 262.459 139.616 263.499 140.156C264.559 140.676 265.779 140.936 267.159 140.936ZM280.292 142.376C279.792 142.376 279.542 142.056 279.542 141.416V120.266C279.542 119.626 279.792 119.306 280.292 119.306C280.812 119.306 281.072 119.626 281.072 120.266V141.416C281.072 142.056 280.812 142.376 280.292 142.376ZM293.55 142.376C291.81 142.376 290.34 142.016 289.14 141.296C287.96 140.556 287.08 139.606 286.5 138.446C285.92 137.286 285.63 136.046 285.63 134.726C285.63 133.406 285.92 132.166 286.5 131.006C287.08 129.846 287.96 128.906 289.14 128.186C290.34 127.446 291.81 127.076 293.55 127.076C295.29 127.076 296.75 127.446 297.93 128.186C299.13 128.906 300.02 129.846 300.6 131.006C301.18 132.166 301.47 133.406 301.47 134.726C301.47 136.046 301.18 137.286 300.6 138.446C300.02 139.606 299.13 140.556 297.93 141.296C296.75 142.016 295.29 142.376 293.55 142.376ZM293.55 140.936C295.47 140.936 297.01 140.396 298.17 139.316C299.33 138.216 299.91 136.686 299.91 134.726C299.91 132.766 299.33 131.246 298.17 130.166C297.01 129.066 295.47 128.516 293.55 128.516C291.63 128.516 290.09 129.066 288.93 130.166C287.77 131.246 287.19 132.766 287.19 134.726C287.19 136.686 287.77 138.216 288.93 139.316C290.09 140.396 291.63 140.936 293.55 140.936ZM306.177 142.376C305.677 142.376 305.427 142.056 305.427 141.416V128.036C305.427 127.396 305.677 127.076 306.177 127.076C306.697 127.076 306.957 127.396 306.957 128.036V130.166C307.677 129.206 308.517 128.506 309.477 128.066C310.437 127.606 311.577 127.376 312.897 127.376H313.677C314.297 127.376 314.607 127.616 314.607 128.096C314.607 128.576 314.297 128.816 313.677 128.816H312.897C311.057 128.816 309.607 129.316 308.547 130.316C307.487 131.316 306.957 132.686 306.957 134.426V141.416C306.957 142.056 306.697 142.376 306.177 142.376ZM323.991 142.376C321.411 142.376 319.431 141.706 318.051 140.366C316.691 139.006 316.011 137.076 316.011 134.576C316.011 133.056 316.331 131.736 316.971 130.616C317.611 129.476 318.531 128.606 319.731 128.006C320.931 127.386 322.341 127.076 323.961 127.076C325.481 127.076 326.821 127.326 327.981 127.826C329.161 128.306 330.081 128.986 330.741 129.866C331.401 130.746 331.731 131.756 331.731 132.896C331.731 133.676 331.531 134.286 331.131 134.726C330.731 135.166 330.161 135.386 329.421 135.386H317.631C317.631 137.126 318.191 138.486 319.311 139.466C320.431 140.446 321.991 140.936 323.991 140.936C325.251 140.936 326.311 140.796 327.171 140.516C328.051 140.216 328.851 139.726 329.571 139.046C329.891 138.766 330.131 138.626 330.291 138.626C330.391 138.626 330.511 138.676 330.651 138.776C330.871 138.956 330.981 139.146 330.981 139.346C330.981 139.526 330.911 139.686 330.771 139.826C330.011 140.666 329.051 141.306 327.891 141.746C326.751 142.166 325.451 142.376 323.991 142.376ZM329.001 134.036C329.421 134.036 329.721 133.946 329.901 133.766C330.081 133.586 330.171 133.286 330.171 132.866C330.171 132.046 329.901 131.306 329.361 130.646C328.841 129.966 328.101 129.446 327.141 129.086C326.201 128.706 325.141 128.516 323.961 128.516C321.941 128.516 320.381 128.996 319.281 129.956C318.201 130.916 317.661 132.276 317.661 134.036H329.001ZM336.44 142.376C335.94 142.376 335.69 142.056 335.69 141.416V128.036C335.69 127.396 335.94 127.076 336.44 127.076C336.96 127.076 337.22 127.396 337.22 128.036V130.166C337.94 129.206 338.78 128.506 339.74 128.066C340.7 127.606 341.84 127.376 343.16 127.376H343.94C344.56 127.376 344.87 127.616 344.87 128.096C344.87 128.576 344.56 128.816 343.94 128.816H343.16C341.32 128.816 339.87 129.316 338.81 130.316C337.75 131.316 337.22 132.686 337.22 134.426V141.416C337.22 142.056 336.96 142.376 336.44 142.376Z" fill="white"/>
</svg>
