<svg width="148" height="44" viewBox="0 0 148 44" fill="none" xmlns="http://www.w3.org/2000/svg">
<rect x="0.469238" y="0.968018" width="147.403" height="43" rx="8" fill="#1E1F23"/>
<path d="M32.509 10.968H22.453C18.085 10.968 15.481 13.572 15.481 17.94V27.984C15.481 32.364 18.085 34.968 22.453 34.968H32.497C36.865 34.968 39.469 32.364 39.469 27.996V17.94C39.481 13.572 36.877 10.968 32.509 10.968ZM21.481 24.54C20.617 24.54 19.909 23.832 19.909 22.968C19.909 22.104 20.617 21.396 21.481 21.396C22.345 21.396 23.053 22.104 23.053 22.968C23.053 23.832 22.345 24.54 21.481 24.54ZM27.481 24.54C26.617 24.54 25.909 23.832 25.909 22.968C25.909 22.104 26.617 21.396 27.481 21.396C28.345 21.396 29.053 22.104 29.053 22.968C29.053 23.832 28.345 24.54 27.481 24.54ZM33.481 24.54C32.617 24.54 31.909 23.832 31.909 22.968C31.909 22.104 32.617 21.396 33.481 21.396C34.345 21.396 35.053 22.104 35.053 22.968C35.053 23.832 34.345 24.54 33.481 24.54Z" fill="white"/>
<path d="M51.9132 27.2342C51.3346 27.2342 50.8212 27.1362 50.3732 26.9402C49.9346 26.7442 49.5892 26.4736 49.3372 26.1282C49.0946 25.7736 48.9732 25.3676 48.9732 24.9102C48.9732 24.2196 49.2579 23.6689 49.8272 23.2582C50.4059 22.8476 51.1852 22.6422 52.1652 22.6422C53.0146 22.6422 53.6959 22.8242 54.2092 23.1882V22.8522C54.2092 22.4136 54.0739 22.0776 53.8032 21.8442C53.5326 21.6109 53.1406 21.4942 52.6272 21.4942C51.8619 21.4942 51.2039 21.6576 50.6532 21.9842C50.4199 22.1149 50.2192 22.1802 50.0512 22.1802C49.8459 22.1802 49.6639 22.0869 49.5052 21.9002C49.4026 21.7696 49.3512 21.6342 49.3512 21.4942C49.3512 21.2609 49.4726 21.0556 49.7152 20.8782C50.0512 20.6356 50.4759 20.4442 50.9892 20.3042C51.5026 20.1642 52.0439 20.0942 52.6132 20.0942C53.6959 20.0942 54.5452 20.3416 55.1612 20.8362C55.7866 21.3216 56.0992 21.9936 56.0992 22.8522V26.4502C56.0992 26.6929 56.0152 26.8842 55.8472 27.0242C55.6886 27.1642 55.4692 27.2342 55.1892 27.2342C54.8999 27.2342 54.6759 27.1689 54.5172 27.0382C54.3586 26.9076 54.2792 26.7209 54.2792 26.4782V26.3242C53.7472 26.9309 52.9586 27.2342 51.9132 27.2342ZM52.3472 25.9462C52.9352 25.9462 53.3926 25.8576 53.7192 25.6802C54.0552 25.4936 54.2232 25.2369 54.2232 24.9102C54.2232 24.6022 54.0552 24.3549 53.7192 24.1682C53.3832 23.9816 52.9352 23.8882 52.3752 23.8882C51.8712 23.8882 51.4792 23.9769 51.1992 24.1542C50.9286 24.3316 50.7932 24.5836 50.7932 24.9102C50.7932 25.2369 50.9286 25.4936 51.1992 25.6802C51.4699 25.8576 51.8526 25.9462 52.3472 25.9462ZM58.5064 27.2342C58.217 27.2342 57.993 27.1596 57.8344 27.0102C57.6757 26.8609 57.5964 26.6556 57.5964 26.3942V17.3082C57.5964 17.0469 57.6757 16.8416 57.8344 16.6922C57.993 16.5429 58.217 16.4682 58.5064 16.4682C58.7864 16.4682 59.0104 16.5429 59.1784 16.6922C59.3464 16.8416 59.4304 17.0469 59.4304 17.3082V26.3942C59.4304 26.6556 59.3464 26.8609 59.1784 27.0102C59.0104 27.1596 58.7864 27.2342 58.5064 27.2342ZM62.1841 27.2342C61.8948 27.2342 61.6708 27.1596 61.5121 27.0102C61.3534 26.8609 61.2741 26.6556 61.2741 26.3942V17.3082C61.2741 17.0469 61.3534 16.8416 61.5121 16.6922C61.6708 16.5429 61.8948 16.4682 62.1841 16.4682C62.4641 16.4682 62.6881 16.5429 62.8561 16.6922C63.0241 16.8416 63.1081 17.0469 63.1081 17.3082V26.3942C63.1081 26.6556 63.0241 26.8609 62.8561 27.0102C62.6881 27.1596 62.4641 27.2342 62.1841 27.2342ZM69.3279 27.2342C69.0386 27.2342 68.8146 27.1596 68.6559 27.0102C68.4973 26.8609 68.4179 26.6556 68.4179 26.3942V20.9342C68.4179 20.6729 68.4973 20.4676 68.6559 20.3182C68.8146 20.1689 69.0386 20.0942 69.3279 20.0942C69.6079 20.0942 69.8319 20.1689 69.9999 20.3182C70.1679 20.4676 70.2519 20.6729 70.2519 20.9342V21.2702C70.4666 20.8969 70.7373 20.6076 71.0639 20.4022C71.3906 20.1969 71.7453 20.0942 72.1279 20.0942C72.5199 20.0942 72.8746 20.2016 73.1919 20.4162C73.5093 20.6216 73.7473 20.9062 73.9059 21.2702C74.5686 20.4862 75.3199 20.0942 76.1599 20.0942C76.9066 20.0942 77.4899 20.3556 77.9099 20.8782C78.3299 21.4009 78.5399 22.1289 78.5399 23.0622V26.3942C78.5399 26.6556 78.4559 26.8609 78.2879 27.0102C78.1199 27.1596 77.8959 27.2342 77.6159 27.2342C77.3266 27.2342 77.1026 27.1596 76.9439 27.0102C76.7853 26.8609 76.7059 26.6556 76.7059 26.3942V22.9502C76.7059 22.4929 76.6219 22.1476 76.4539 21.9142C76.2953 21.6716 76.0573 21.5502 75.7399 21.5502C75.4693 21.5502 75.2313 21.6249 75.0259 21.7742C74.8206 21.9236 74.6293 22.1616 74.4519 22.4882V26.3942C74.4519 26.6556 74.3679 26.8609 74.1999 27.0102C74.0319 27.1596 73.8079 27.2342 73.5279 27.2342C73.2386 27.2342 73.0146 27.1596 72.8559 27.0102C72.6973 26.8609 72.6179 26.6556 72.6179 26.3942V23.2442C72.6179 22.1149 72.2959 21.5502 71.6519 21.5502C71.2133 21.5502 70.8679 21.7229 70.6159 22.0682C70.3733 22.4136 70.2519 22.8896 70.2519 23.4962V26.3942C70.2519 26.6556 70.1679 26.8609 69.9999 27.0102C69.8319 27.1596 69.6079 27.2342 69.3279 27.2342ZM83.2239 30.5942C82.5426 30.5942 81.9219 30.4869 81.3619 30.2722C80.8112 30.0669 80.3866 29.7776 80.0879 29.4042C79.9666 29.2456 79.9059 29.0822 79.9059 28.9142C79.9059 28.6902 80.0132 28.4849 80.2279 28.2982C80.3679 28.1862 80.5219 28.1302 80.6899 28.1302C80.9419 28.1302 81.1846 28.2562 81.4179 28.5082C81.8192 28.9376 82.4072 29.1522 83.1819 29.1522C83.8446 29.1522 84.3439 28.9749 84.6799 28.6202C85.0252 28.2749 85.1979 27.7662 85.1979 27.0942V26.5062C84.9739 26.7209 84.6846 26.8982 84.3299 27.0382C83.9752 27.1689 83.6392 27.2342 83.3219 27.2342C82.1552 27.2342 81.2452 26.9262 80.5919 26.3102C79.9386 25.6849 79.6119 24.8169 79.6119 23.7062V20.8782C79.6119 20.6542 79.7006 20.4676 79.8779 20.3182C80.0552 20.1689 80.2746 20.0942 80.5359 20.0942C80.7879 20.0942 81.0026 20.1736 81.1799 20.3322C81.3572 20.4816 81.4459 20.6636 81.4459 20.8782V23.7062C81.4459 24.3782 81.6092 24.9009 81.9359 25.2742C82.2719 25.6476 82.7339 25.8342 83.3219 25.8342C83.8912 25.8342 84.3346 25.6476 84.6519 25.2742C84.9692 24.9009 85.1279 24.3782 85.1279 23.7062V21.0322C85.1279 20.7336 85.2072 20.5049 85.3659 20.3462C85.5339 20.1782 85.7626 20.0942 86.0519 20.0942C86.3412 20.0942 86.5652 20.1782 86.7239 20.3462C86.8826 20.5049 86.9619 20.7336 86.9619 21.0322V26.8562C86.9619 28.0322 86.6306 28.9469 85.9679 29.6002C85.3146 30.2629 84.3999 30.5942 83.2239 30.5942ZM92.9119 27.2342C92.6226 27.2342 92.3986 27.1596 92.2399 27.0102C92.0812 26.8609 92.0019 26.6556 92.0019 26.3942V20.9342C92.0019 20.6636 92.0766 20.4582 92.2259 20.3182C92.3846 20.1689 92.6039 20.0942 92.8839 20.0942C93.1639 20.0942 93.3832 20.1689 93.5419 20.3182C93.7006 20.4676 93.7799 20.6729 93.7799 20.9342V21.3962C94.0692 21.0229 94.4052 20.7382 94.7879 20.5422C95.1799 20.3369 95.5999 20.2342 96.0479 20.2342H96.3559C96.6546 20.2342 96.8832 20.2996 97.0419 20.4302C97.2099 20.5516 97.2939 20.7289 97.2939 20.9622C97.2939 21.1956 97.2099 21.3776 97.0419 21.5082C96.8832 21.6296 96.6546 21.6902 96.3559 21.6902H95.8799C95.2546 21.6902 94.7552 21.8909 94.3819 22.2922C94.0179 22.6842 93.8359 23.2256 93.8359 23.9162V26.3942C93.8359 26.6556 93.7519 26.8609 93.5839 27.0102C93.4159 27.1596 93.1919 27.2342 92.9119 27.2342ZM101.361 27.2342C100.558 27.2342 99.8584 27.0896 99.261 26.8002C98.6637 26.5109 98.2017 26.1049 97.875 25.5822C97.5577 25.0502 97.399 24.4296 97.399 23.7202C97.399 22.5722 97.7304 21.6809 98.393 21.0462C99.065 20.4116 100.008 20.0942 101.221 20.0942C101.968 20.0942 102.626 20.2109 103.195 20.4442C103.774 20.6776 104.222 21.0042 104.539 21.4242C104.866 21.8349 105.029 22.3062 105.029 22.8382C105.029 23.2862 104.884 23.6316 104.595 23.8742C104.315 24.1169 103.914 24.2382 103.391 24.2382H99.177C99.177 24.7609 99.359 25.1576 99.723 25.4282C100.096 25.6896 100.642 25.8202 101.361 25.8202C102.117 25.8202 102.761 25.6522 103.293 25.3162C103.592 25.1296 103.825 25.0362 103.993 25.0362C104.152 25.0362 104.306 25.1109 104.455 25.2602C104.614 25.4189 104.693 25.5916 104.693 25.7782C104.693 26.0022 104.6 26.1796 104.413 26.3102C104.021 26.6089 103.564 26.8376 103.041 26.9962C102.518 27.1549 101.958 27.2342 101.361 27.2342ZM102.831 22.9502C102.99 22.9502 103.102 22.9222 103.167 22.8662C103.232 22.8009 103.265 22.6982 103.265 22.5582C103.265 22.2316 103.078 21.9749 102.705 21.7882C102.341 21.6016 101.846 21.5082 101.221 21.5082C100.596 21.5082 100.101 21.6389 99.737 21.9002C99.3824 22.1616 99.205 22.5116 99.205 22.9502H102.831ZM107.09 31.2802C106.8 31.2802 106.576 31.2056 106.418 31.0562C106.259 30.9069 106.18 30.7016 106.18 30.4402V20.9342C106.18 20.6729 106.259 20.4676 106.418 20.3182C106.576 20.1689 106.8 20.0942 107.09 20.0942C107.37 20.0942 107.594 20.1689 107.762 20.3182C107.93 20.4676 108.014 20.6729 108.014 20.9342V21.2142C108.415 20.8222 108.83 20.5376 109.26 20.3602C109.698 20.1829 110.193 20.0942 110.744 20.0942C111.472 20.0942 112.106 20.2389 112.648 20.5282C113.198 20.8176 113.618 21.2329 113.908 21.7742C114.206 22.3062 114.356 22.9362 114.356 23.6642C114.356 24.3829 114.206 25.0129 113.908 25.5542C113.609 26.0956 113.184 26.5109 112.634 26.8002C112.083 27.0896 111.434 27.2342 110.688 27.2342C110.128 27.2342 109.638 27.1502 109.218 26.9822C108.798 26.8049 108.401 26.5249 108.028 26.1422L108.014 30.4402C108.014 30.7016 107.93 30.9069 107.762 31.0562C107.594 31.2056 107.37 31.2802 107.09 31.2802ZM110.31 25.7782C111 25.7782 111.537 25.5962 111.92 25.2322C112.312 24.8589 112.508 24.3362 112.508 23.6642C112.508 22.9922 112.312 22.4742 111.92 22.1102C111.537 21.7369 111 21.5502 110.31 21.5502C109.591 21.5502 109.026 21.7416 108.616 22.1242C108.214 22.4976 108.014 23.0109 108.014 23.6642C108.014 24.3176 108.214 24.8356 108.616 25.2182C109.026 25.5916 109.591 25.7782 110.31 25.7782ZM119.331 27.2342C118.519 27.2342 117.795 27.0896 117.161 26.8002C116.535 26.5016 116.045 26.0816 115.691 25.5402C115.336 24.9989 115.159 24.3736 115.159 23.6642C115.159 22.9549 115.336 22.3296 115.691 21.7882C116.045 21.2469 116.535 20.8316 117.161 20.5422C117.795 20.2436 118.519 20.0942 119.331 20.0942C120.143 20.0942 120.861 20.2436 121.487 20.5422C122.121 20.8316 122.616 21.2469 122.971 21.7882C123.325 22.3296 123.503 22.9549 123.503 23.6642C123.503 24.3736 123.325 24.9989 122.971 25.5402C122.616 26.0816 122.121 26.5016 121.487 26.8002C120.861 27.0896 120.143 27.2342 119.331 27.2342ZM119.331 25.7782C120.049 25.7782 120.614 25.5916 121.025 25.2182C121.445 24.8449 121.655 24.3269 121.655 23.6642C121.655 23.0016 121.445 22.4836 121.025 22.1102C120.614 21.7369 120.049 21.5502 119.331 21.5502C118.612 21.5502 118.043 21.7369 117.623 22.1102C117.212 22.4836 117.007 23.0016 117.007 23.6642C117.007 24.3269 117.212 24.8449 117.623 25.2182C118.043 25.5916 118.612 25.7782 119.331 25.7782ZM128.052 27.2342C126.55 27.2342 125.444 26.8002 124.734 25.9322C124.585 25.7362 124.51 25.5589 124.51 25.4002C124.51 25.1762 124.627 24.9802 124.86 24.8122C125.019 24.7096 125.173 24.6582 125.322 24.6582C125.528 24.6582 125.719 24.7469 125.896 24.9242C126.214 25.2416 126.522 25.4702 126.82 25.6102C127.128 25.7409 127.506 25.8062 127.954 25.8062C128.337 25.8062 128.659 25.7549 128.92 25.6522C129.182 25.5496 129.312 25.4236 129.312 25.2742C129.312 25.0876 129.205 24.9289 128.99 24.7982C128.776 24.6676 128.342 24.4996 127.688 24.2942C126.662 23.9769 125.934 23.6456 125.504 23.3002C125.075 22.9456 124.86 22.5069 124.86 21.9842C124.86 21.3962 125.112 20.9342 125.616 20.5982C126.12 20.2622 126.816 20.0942 127.702 20.0942C128.384 20.0942 129 20.1969 129.55 20.4022C130.101 20.6076 130.502 20.8829 130.754 21.2282C130.876 21.3869 130.936 21.5456 130.936 21.7042C130.936 21.9282 130.824 22.1102 130.6 22.2502C130.442 22.3529 130.278 22.4042 130.11 22.4042C129.84 22.4042 129.592 22.2922 129.368 22.0682C129.182 21.8909 128.939 21.7556 128.64 21.6622C128.351 21.5689 128.034 21.5222 127.688 21.5222C127.035 21.5222 126.708 21.6762 126.708 21.9842C126.708 22.1056 126.76 22.2129 126.862 22.3062C126.965 22.3996 127.147 22.4976 127.408 22.6002C127.679 22.7029 128.099 22.8429 128.668 23.0202C129.583 23.3002 130.222 23.6082 130.586 23.9442C130.96 24.2802 131.146 24.7236 131.146 25.2742C131.146 25.8622 130.876 26.3382 130.334 26.7022C129.793 27.0569 129.032 27.2342 128.052 27.2342Z" fill="white"/>
</svg>
