<svg width="127" height="44" viewBox="0 0 127 44" fill="none" xmlns="http://www.w3.org/2000/svg">
<rect x="0.0195312" y="0.905273" width="126.178" height="43" rx="8" fill="#1E1F23"/>
<path d="M25.1895 10.3379C18.5595 10.3379 13.1895 15.7109 13.1895 22.3379C13.1895 27.6409 16.6275 32.1379 21.3945 33.7229C21.9945 33.8359 22.2145 33.4649 22.2145 33.1459C22.2145 32.8609 22.2045 32.1059 22.1995 31.1059C18.8615 31.8299 18.1575 29.4959 18.1575 29.4959C17.6115 28.1109 16.8225 27.7409 16.8225 27.7409C15.7355 26.9969 16.9065 27.0119 16.9065 27.0119C18.1115 27.0959 18.7445 28.2479 18.7445 28.2479C19.8145 30.0829 21.5535 29.5529 22.2395 29.2459C22.3475 28.4699 22.6565 27.9409 22.9995 27.6409C20.3345 27.3409 17.5335 26.3089 17.5335 21.7109C17.5335 20.4009 17.9985 19.3309 18.7685 18.4909C18.6335 18.1879 18.2285 16.9679 18.8735 15.3149C18.8735 15.3149 19.8785 14.9929 22.1735 16.5449C23.1335 16.2779 24.1535 16.1459 25.1735 16.1399C26.1935 16.1459 27.2135 16.2779 28.1735 16.5449C30.4535 14.9929 31.4585 15.3149 31.4585 15.3149C32.1035 16.9679 31.6985 18.1879 31.5785 18.4909C32.3435 19.3309 32.8085 20.4009 32.8085 21.7109C32.8085 26.3209 30.0035 27.3359 27.3335 27.6309C27.7535 27.9909 28.1435 28.7269 28.1435 29.8509C28.1435 31.4569 28.1285 32.7469 28.1285 33.1369C28.1285 33.4519 28.3385 33.8269 28.9535 33.7069C33.7545 32.1329 37.1895 27.6329 37.1895 22.3379C37.1895 15.7109 31.8165 10.3379 25.1895 10.3379Z" fill="white"/>
<path d="M49.0107 22.939C49.0107 22.187 49.152 21.4852 49.4346 20.8335C49.7171 20.1772 50.1296 19.6076 50.6719 19.1245C51.2142 18.6414 51.8796 18.2609 52.668 17.9829C53.4609 17.7049 54.3678 17.5659 55.3887 17.5659C55.7578 17.5659 56.127 17.5864 56.4961 17.6274C56.8698 17.6639 57.2367 17.7231 57.5967 17.8052C57.9613 17.8872 58.3145 17.992 58.6562 18.1196C59.0026 18.2427 59.3307 18.3908 59.6406 18.564L58.6426 20.2046C58.4557 20.0952 58.2438 19.9972 58.0068 19.9106C57.7699 19.8195 57.5146 19.7443 57.2412 19.6851C56.9723 19.6213 56.6921 19.5734 56.4004 19.5415C56.1133 19.5096 55.8239 19.4937 55.5322 19.4937C54.8577 19.4937 54.2562 19.5802 53.7275 19.7534C53.1989 19.922 52.7523 20.1613 52.3877 20.4712C52.0231 20.7765 51.7451 21.1434 51.5537 21.5718C51.3623 22.0002 51.2666 22.4696 51.2666 22.98C51.2666 23.5086 51.3669 23.994 51.5674 24.436C51.7679 24.8781 52.0527 25.2586 52.4219 25.5776C52.791 25.8966 53.2376 26.1473 53.7617 26.3296C54.2858 26.5073 54.8714 26.5962 55.5186 26.5962C56.0335 26.5962 56.5052 26.5392 56.9336 26.4253C57.362 26.3068 57.7357 26.1405 58.0547 25.9263C58.3737 25.7121 58.6335 25.4546 58.834 25.1538C59.0345 24.8485 59.1667 24.5067 59.2305 24.1284H55.498V22.3442H61.1787V22.3511L61.1855 22.3442C61.2995 22.8911 61.3337 23.4243 61.2881 23.9438C61.2471 24.4588 61.1286 24.9465 60.9326 25.4067C60.7412 25.8625 60.4769 26.2817 60.1396 26.6646C59.8024 27.0474 59.3991 27.3778 58.9297 27.6558C58.4603 27.9292 57.9271 28.1434 57.3301 28.2983C56.7331 28.4487 56.0791 28.5239 55.3682 28.5239C54.3747 28.5239 53.4837 28.3781 52.6953 28.0864C51.9115 27.7948 51.2461 27.396 50.6992 26.8901C50.1523 26.3843 49.7331 25.7918 49.4414 25.1128C49.1543 24.4338 49.0107 23.7091 49.0107 22.939ZM64.5557 19.2134C64.3551 19.2134 64.1729 19.186 64.0088 19.1313C63.8493 19.0721 63.7126 18.9946 63.5986 18.8989C63.4847 18.7987 63.3958 18.6847 63.332 18.5571C63.2728 18.425 63.2432 18.286 63.2432 18.1401C63.2432 17.9897 63.2728 17.8507 63.332 17.7231C63.3958 17.591 63.4847 17.4771 63.5986 17.3813C63.7126 17.2856 63.8493 17.2104 64.0088 17.1558C64.1729 17.0965 64.3551 17.0669 64.5557 17.0669C64.7607 17.0669 64.943 17.0965 65.1025 17.1558C65.2666 17.2104 65.4056 17.2856 65.5195 17.3813C65.6335 17.4771 65.7201 17.591 65.7793 17.7231C65.8431 17.8507 65.875 17.9897 65.875 18.1401C65.875 18.286 65.8431 18.425 65.7793 18.5571C65.7201 18.6847 65.6335 18.7987 65.5195 18.8989C65.4056 18.9946 65.2666 19.0721 65.1025 19.1313C64.943 19.186 64.7607 19.2134 64.5557 19.2134ZM63.5439 20.314H65.5674V28.3804H63.5439V20.314ZM69.3818 21.8315H67.4336V20.314H69.3818V17.8052H71.4053V20.314H73.3535V21.8315H71.4053V28.3804H69.3818V21.8315ZM75.3975 17.6958H77.5645V20.4849H84.209V17.6958H86.3828V28.3804H84.209V22.3374H77.5645V28.3804H75.3975V17.6958ZM89.165 20.3071H91.1816V24.2446C91.1816 24.6183 91.2227 24.9601 91.3047 25.27C91.3867 25.5754 91.5257 25.8374 91.7217 26.0562C91.9222 26.2749 92.1865 26.4458 92.5146 26.5688C92.8473 26.6873 93.2598 26.7466 93.752 26.7466C93.9844 26.7466 94.2191 26.7215 94.4561 26.6714C94.6976 26.6213 94.9277 26.5529 95.1465 26.4663C95.3652 26.3752 95.568 26.2681 95.7549 26.145C95.9463 26.022 96.1104 25.8875 96.2471 25.7417V20.3071H98.2705V28.3804H96.2471V27.6899C95.7503 27.9862 95.2513 28.1981 94.75 28.3257C94.2487 28.4533 93.7725 28.5171 93.3213 28.5171C92.583 28.5171 91.9495 28.4282 91.4209 28.2505C90.8968 28.0728 90.4661 27.8153 90.1289 27.478C89.7962 27.1362 89.5524 26.7192 89.3975 26.2271C89.2425 25.7303 89.165 25.1652 89.165 24.5317V20.3071ZM100.786 17.0396H102.81V21.0728C102.987 20.9497 103.197 20.8335 103.438 20.7241C103.68 20.6147 103.94 20.519 104.218 20.437C104.496 20.355 104.783 20.2912 105.079 20.2456C105.375 20.1955 105.672 20.1704 105.968 20.1704C106.651 20.1704 107.278 20.2707 107.848 20.4712C108.422 20.6717 108.914 20.9543 109.324 21.3188C109.734 21.6834 110.053 22.1209 110.281 22.6313C110.514 23.1372 110.63 23.6978 110.63 24.313C110.63 24.9556 110.509 25.5366 110.268 26.0562C110.026 26.5711 109.691 27.0132 109.263 27.3823C108.839 27.7469 108.333 28.0295 107.745 28.23C107.162 28.4259 106.528 28.5239 105.845 28.5239C105.553 28.5239 105.264 28.5057 104.977 28.4692C104.694 28.4328 104.421 28.3826 104.156 28.3188C103.896 28.255 103.65 28.1799 103.418 28.0933C103.19 28.0021 102.987 27.9041 102.81 27.7993V28.3804H100.786V17.0396ZM102.81 25.8442C103.015 26.0083 103.231 26.1473 103.459 26.2612C103.687 26.3752 103.919 26.4686 104.156 26.5415C104.393 26.6144 104.632 26.6691 104.874 26.7056C105.116 26.7375 105.35 26.7534 105.578 26.7534C106.043 26.7534 106.455 26.6919 106.815 26.5688C107.18 26.4412 107.485 26.2681 107.731 26.0493C107.982 25.8306 108.174 25.5731 108.306 25.2769C108.438 24.9806 108.504 24.6593 108.504 24.313C108.504 23.9894 108.438 23.6841 108.306 23.397C108.178 23.1099 107.991 22.8592 107.745 22.645C107.504 22.4263 107.21 22.2554 106.863 22.1323C106.521 22.0047 106.136 21.9409 105.708 21.9409C105.435 21.9409 105.161 21.9683 104.888 22.0229C104.614 22.0731 104.35 22.146 104.095 22.2417C103.844 22.3374 103.607 22.4536 103.384 22.5903C103.165 22.7271 102.974 22.8797 102.81 23.0483V25.8442Z" fill="white"/>
</svg>
