<svg width="87" height="43" viewBox="0 0 87 43" fill="none" xmlns="http://www.w3.org/2000/svg">
<rect width="87" height="43" rx="8" fill="#1E1F23"/>
<path d="M48.9912 22.0337C48.9912 21.2817 49.1325 20.5799 49.415 19.9282C49.6976 19.272 50.11 18.7023 50.6523 18.2192C51.1947 17.7362 51.86 17.3556 52.6484 17.0776C53.4414 16.7996 54.3483 16.6606 55.3691 16.6606C55.7383 16.6606 56.1074 16.6812 56.4766 16.7222C56.8503 16.7586 57.2171 16.8179 57.5771 16.8999C57.9417 16.9819 58.2949 17.0868 58.6367 17.2144C58.9831 17.3374 59.3112 17.4855 59.6211 17.6587L58.623 19.2993C58.4362 19.1899 58.2243 19.092 57.9873 19.0054C57.7503 18.9142 57.4951 18.839 57.2217 18.7798C56.9528 18.716 56.6725 18.6681 56.3809 18.6362C56.0938 18.6043 55.8044 18.5884 55.5127 18.5884C54.8382 18.5884 54.2367 18.675 53.708 18.8481C53.1794 19.0168 52.7327 19.256 52.3682 19.5659C52.0036 19.8713 51.7256 20.2381 51.5342 20.6665C51.3428 21.0949 51.2471 21.5643 51.2471 22.0747C51.2471 22.6034 51.3473 23.0887 51.5479 23.5308C51.7484 23.9728 52.0332 24.3534 52.4023 24.6724C52.7715 24.9914 53.2181 25.242 53.7422 25.4243C54.2663 25.6021 54.8519 25.6909 55.499 25.6909C56.014 25.6909 56.4857 25.634 56.9141 25.52C57.3424 25.4015 57.7161 25.2352 58.0352 25.021C58.3542 24.8068 58.6139 24.5493 58.8145 24.2485C59.015 23.9432 59.1471 23.6014 59.2109 23.2231H55.4785V21.439H61.1592V21.4458L61.166 21.439C61.2799 21.9858 61.3141 22.519 61.2686 23.0386C61.2275 23.5535 61.109 24.0412 60.9131 24.5015C60.7217 24.9572 60.4574 25.3765 60.1201 25.7593C59.7829 26.1421 59.3796 26.4725 58.9102 26.7505C58.4408 27.0239 57.9076 27.2381 57.3105 27.3931C56.7135 27.5435 56.0596 27.6187 55.3486 27.6187C54.3551 27.6187 53.4642 27.4728 52.6758 27.1812C51.8919 26.8895 51.2266 26.4907 50.6797 25.9849C50.1328 25.479 49.7135 24.8866 49.4219 24.2075C49.1348 23.5285 48.9912 22.8039 48.9912 22.0337ZM64.5361 18.3081C64.3356 18.3081 64.1533 18.2808 63.9893 18.2261C63.8298 18.1668 63.693 18.0894 63.5791 17.9937C63.4652 17.8934 63.3763 17.7795 63.3125 17.6519C63.2533 17.5197 63.2236 17.3807 63.2236 17.2349C63.2236 17.0845 63.2533 16.9455 63.3125 16.8179C63.3763 16.6857 63.4652 16.5718 63.5791 16.4761C63.693 16.3804 63.8298 16.3052 63.9893 16.2505C64.1533 16.1912 64.3356 16.1616 64.5361 16.1616C64.7412 16.1616 64.9235 16.1912 65.083 16.2505C65.2471 16.3052 65.3861 16.3804 65.5 16.4761C65.6139 16.5718 65.7005 16.6857 65.7598 16.8179C65.8236 16.9455 65.8555 17.0845 65.8555 17.2349C65.8555 17.3807 65.8236 17.5197 65.7598 17.6519C65.7005 17.7795 65.6139 17.8934 65.5 17.9937C65.3861 18.0894 65.2471 18.1668 65.083 18.2261C64.9235 18.2808 64.7412 18.3081 64.5361 18.3081ZM63.5244 19.4087H65.5479V27.4751H63.5244V19.4087ZM69.3623 20.9263H67.4141V19.4087H69.3623V16.8999H71.3857V19.4087H73.334V20.9263H71.3857V27.4751H69.3623V20.9263Z" fill="white"/>
<path d="M36.9663 20.4789L26.3759 9.88967C25.7655 9.28027 24.7771 9.28027 24.1646 9.88967L21.9705 12.0878L24.7599 14.877C25.4118 14.6598 26.1536 14.8063 26.669 15.3227C27.1905 15.8432 27.334 16.5941 27.1116 17.2429L29.7979 19.9311C30.4498 19.7058 31.1997 19.8523 31.7181 20.3707C32.4468 21.0984 32.4468 22.2747 31.7181 23.0024C30.9915 23.729 29.8171 23.729 29.0905 23.0024C28.5457 22.4556 28.4093 21.6512 28.6822 20.9852L26.1667 18.4829V25.0772C26.3446 25.1641 26.5123 25.2823 26.6599 25.4289C27.3805 26.1575 27.3805 27.3319 26.6599 28.0565C25.9332 28.7851 24.7508 28.7851 24.0231 28.0565C23.2965 27.3298 23.2965 26.1575 24.0231 25.4309C24.2071 25.249 24.4143 25.1115 24.6346 25.0206V18.3616C24.4153 18.2697 24.2061 18.1373 24.0282 17.9564C23.4774 17.4056 23.345 16.6001 23.628 15.9261L20.8871 13.1721L13.6247 20.4294C13.0183 21.0408 13.0183 22.0302 13.6247 22.6416L24.2162 33.2298C24.8266 33.8402 25.815 33.8402 26.4254 33.2298L36.9663 22.6891C37.5778 22.0797 37.5778 21.0903 36.9663 20.4789Z" fill="white"/>
</svg>
