<svg width="55" height="55" viewBox="0 0 55 55" fill="none" xmlns="http://www.w3.org/2000/svg">
<path d="M53.9076 13.5656C52.1534 7.61794 47.1925 2.65702 41.2449 0.902877C36.7225 -0.412728 33.5979 -0.303095 31.4326 1.314C28.8288 3.26 28.5273 6.76828 28.5273 9.26245V16.0872C28.5273 22.8296 31.5971 26.2556 37.6269 26.2556H45.4932C47.9599 26.2556 51.4956 25.9541 53.4416 23.3503C55.1135 21.2125 55.2506 18.088 53.9076 13.5656Z" fill="#797B83"/>
<path d="M46.3407 31.139C45.628 30.3168 44.5865 29.8508 43.5176 29.8508H33.7054C28.8815 29.8508 24.9621 25.9314 24.9621 21.1076V11.2954C24.9621 10.2265 24.4961 9.18495 23.6739 8.47233C22.879 7.75971 21.7827 7.43081 20.7412 7.56785C14.3002 8.3901 8.38001 11.9258 4.51542 17.243C0.623424 22.5876 -0.801815 29.1108 0.431565 35.634C2.21311 45.0625 9.75043 52.5998 19.2063 54.3814C20.7138 54.6829 22.2212 54.8199 23.7287 54.8199C28.6896 54.8199 33.4861 53.285 37.57 50.2975C42.8872 46.4329 46.4229 40.5127 47.2451 34.0717C47.3822 33.0028 47.0533 31.9339 46.3407 31.139Z" fill="#797B83"/>
</svg>
