<svg width="116" height="44" viewBox="0 0 116 44" fill="none" xmlns="http://www.w3.org/2000/svg">
<rect width="115.874" height="43.1158" rx="8" fill="#1E1F23"/>
<path d="M16.1685 12.1262H33.6842L32.0911 30.2845L24.9072 32.3367L17.7641 30.2837L16.1685 12.1262ZM22.0329 20.3367L21.8394 18.0479L30.2295 18.0504L30.4213 15.8424L19.4314 15.8399L20.0136 22.5852H27.6255L27.3535 25.4702L24.9264 26.1473L22.4616 25.4652L22.3048 23.6883H20.1287L20.4039 27.2007L24.9264 28.4218L29.4129 27.2066L30.0335 20.3376H22.0329V20.3367Z" fill="white"/>
<path d="M48.8657 27.6136C48.5857 27.6136 48.3617 27.539 48.1937 27.3896C48.0257 27.2403 47.9417 27.035 47.9417 26.7736V18.3736C47.9417 18.1123 48.0257 17.907 48.1937 17.7576C48.3617 17.6083 48.5857 17.5336 48.8657 17.5336C49.1457 17.5336 49.3697 17.613 49.5377 17.7716C49.715 17.921 49.8037 18.1216 49.8037 18.3736V21.7196H54.8297V18.3736C54.8297 18.1216 54.9137 17.921 55.0817 17.7716C55.259 17.613 55.4877 17.5336 55.7677 17.5336C56.0477 17.5336 56.2717 17.6083 56.4397 17.7576C56.6077 17.907 56.6917 18.1123 56.6917 18.3736V26.7736C56.6917 27.035 56.6077 27.2403 56.4397 27.3896C56.2717 27.539 56.0477 27.6136 55.7677 27.6136C55.4877 27.6136 55.259 27.539 55.0817 27.3896C54.9137 27.231 54.8297 27.0256 54.8297 26.7736V23.1616H49.8037V26.7736C49.8037 27.0256 49.715 27.231 49.5377 27.3896C49.3697 27.539 49.1457 27.6136 48.8657 27.6136ZM62.338 27.6136C62.058 27.6136 61.834 27.539 61.666 27.3896C61.498 27.2403 61.414 27.035 61.414 26.7736V19.1156H58.712C58.4413 19.1156 58.2266 19.055 58.068 18.9336C57.9186 18.803 57.844 18.6256 57.844 18.4016C57.844 18.1683 57.9186 17.991 58.068 17.8696C58.2173 17.739 58.432 17.6736 58.712 17.6736H65.978C66.258 17.6736 66.4726 17.739 66.622 17.8696C66.7713 17.991 66.846 18.1683 66.846 18.4016C66.846 18.6256 66.7666 18.803 66.608 18.9336C66.4586 19.055 66.2486 19.1156 65.978 19.1156H63.276V26.7736C63.276 27.0256 63.1873 27.231 63.01 27.3896C62.842 27.539 62.618 27.6136 62.338 27.6136ZM68.2934 27.6136C68.0134 27.6136 67.7894 27.539 67.6214 27.3896C67.4534 27.2403 67.3694 27.035 67.3694 26.7736V21.0056C67.3694 19.923 67.6774 19.0736 68.2934 18.4576C68.9094 17.8416 69.7588 17.5336 70.8414 17.5336C71.3641 17.5336 71.8541 17.6643 72.3114 17.9256C72.7781 18.1776 73.1794 18.5416 73.5154 19.0176C73.8421 18.5323 74.2341 18.1636 74.6914 17.9116C75.1581 17.6596 75.6621 17.5336 76.2034 17.5336C77.2861 17.5336 78.1354 17.8416 78.7514 18.4576C79.3674 19.0736 79.6755 19.923 79.6755 21.0056V26.7736C79.6755 27.0256 79.5868 27.231 79.4095 27.3896C79.2415 27.539 79.0174 27.6136 78.7374 27.6136C78.4574 27.6136 78.2335 27.539 78.0654 27.3896C77.8974 27.2403 77.8134 27.035 77.8134 26.7736V21.0056C77.8134 20.2963 77.6828 19.7876 77.4214 19.4796C77.1601 19.1623 76.7308 19.0036 76.1334 19.0036C75.5921 19.0036 75.1721 19.1763 74.8734 19.5216C74.5841 19.867 74.4394 20.3616 74.4394 21.0056V26.7736C74.4394 27.035 74.3554 27.2403 74.1874 27.3896C74.0194 27.539 73.7954 27.6136 73.5154 27.6136C73.2354 27.6136 73.0114 27.539 72.8434 27.3896C72.6848 27.2403 72.6054 27.035 72.6054 26.7736V21.0056C72.6054 20.3803 72.4561 19.8903 72.1574 19.5356C71.8588 19.181 71.4434 19.0036 70.9114 19.0036C70.3141 19.0036 69.8848 19.1623 69.6234 19.4796C69.3621 19.7876 69.2314 20.2963 69.2314 21.0056V26.7736C69.2314 27.0256 69.1428 27.231 68.9654 27.3896C68.7974 27.539 68.5734 27.6136 68.2934 27.6136ZM83.4864 27.4736C82.7771 27.4736 82.2264 27.287 81.8344 26.9136C81.4424 26.5403 81.2464 26.0176 81.2464 25.3456V18.3736C81.2464 18.1123 81.3304 17.907 81.4984 17.7576C81.6664 17.6083 81.8904 17.5336 82.1704 17.5336C82.4504 17.5336 82.6744 17.613 82.8424 17.7716C83.0197 17.921 83.1084 18.1216 83.1084 18.3736V25.3456C83.1084 25.5603 83.1597 25.7283 83.2624 25.8496C83.3744 25.971 83.5237 26.0316 83.7104 26.0316H88.1904C88.4704 26.0316 88.6851 26.097 88.8344 26.2276C88.9837 26.349 89.0584 26.5263 89.0584 26.7596C89.0584 26.9836 88.9791 27.161 88.8204 27.2916C88.6711 27.413 88.4611 27.4736 88.1904 27.4736H83.4864ZM94.1915 27.6136C93.3888 27.6136 92.6328 27.4643 91.9235 27.1656C91.2141 26.8576 90.6401 26.433 90.2015 25.8916C90.0521 25.6956 89.9775 25.4996 89.9775 25.3036C89.9775 25.0423 90.1035 24.8276 90.3555 24.6596C90.5048 24.5476 90.6635 24.4916 90.8315 24.4916C91.1021 24.4916 91.3355 24.6316 91.5315 24.9116C91.8208 25.3036 92.1988 25.607 92.6655 25.8216C93.1321 26.0363 93.6361 26.1436 94.1775 26.1436C94.9988 26.1436 95.6195 25.9616 96.0395 25.5976C96.4688 25.2336 96.6835 24.7203 96.6835 24.0576C96.6835 23.4043 96.4875 22.9003 96.0955 22.5456C95.7035 22.1816 95.1295 21.9996 94.3735 21.9996C93.9348 21.9996 93.5288 22.0743 93.1555 22.2236C92.7915 22.3636 92.5021 22.5596 92.2875 22.8116C92.1475 22.9796 91.9888 23.1103 91.8115 23.2036C91.6435 23.297 91.4755 23.3436 91.3075 23.3436C91.2141 23.3436 91.1255 23.3296 91.0415 23.3016C90.8175 23.227 90.6448 23.115 90.5235 22.9656C90.4115 22.8163 90.3695 22.639 90.3975 22.4336L90.9435 18.8216C90.9995 18.4576 91.1675 18.1776 91.4475 17.9816C91.7275 17.7763 92.0868 17.6736 92.5255 17.6736H97.2015C97.4721 17.6736 97.6821 17.7343 97.8315 17.8556C97.9901 17.977 98.0695 18.159 98.0695 18.4016C98.0695 18.635 97.9901 18.8123 97.8315 18.9336C97.6728 19.055 97.4628 19.1156 97.2015 19.1156H93.0995C92.9688 19.1156 92.8568 19.1576 92.7635 19.2416C92.6795 19.3163 92.6281 19.4236 92.6095 19.5636L92.3575 21.2296C92.6935 21.0056 93.0621 20.833 93.4635 20.7116C93.8741 20.5903 94.2848 20.5296 94.6955 20.5296C95.4888 20.5296 96.1748 20.6743 96.7535 20.9636C97.3321 21.2436 97.7755 21.6496 98.0835 22.1816C98.3915 22.7136 98.5455 23.3343 98.5455 24.0436C98.5455 24.7623 98.3728 25.3923 98.0275 25.9336C97.6821 26.4656 97.1828 26.881 96.5295 27.1796C95.8761 27.469 95.0968 27.6136 94.1915 27.6136Z" fill="white"/>
</svg>
