<svg width="139" height="43" viewBox="0 0 139 43" fill="none" xmlns="http://www.w3.org/2000/svg">
<rect width="139" height="43" rx="8" fill="#1E1F23"/>
<path d="M15 14C15 11.7909 16.7909 10 19 10H35C37.2091 10 39 11.7909 39 14V30C39 32.2091 37.2091 34 35 34H19C16.7909 34 15 32.2091 15 30V14ZM37.034 28.276C36.859 27.181 36.146 26.261 34.031 25.403C33.295 25.058 32.477 24.818 32.234 24.263C32.143 23.933 32.129 23.753 32.188 23.558C32.338 22.912 33.103 22.718 33.703 22.898C34.093 23.018 34.453 23.318 34.679 23.798C35.713 23.122 35.713 23.122 36.434 22.673C36.164 22.253 36.03 22.072 35.848 21.893C35.218 21.188 34.379 20.828 33.014 20.859L32.309 20.948C31.633 21.113 30.989 21.473 30.599 21.953C29.459 23.244 29.788 25.494 31.168 26.424C32.533 27.444 34.529 27.668 34.784 28.629C35.024 29.799 33.914 30.174 32.818 30.039C32.007 29.859 31.558 29.453 31.063 28.703L29.233 29.754C29.443 30.234 29.683 30.443 30.043 30.863C31.783 32.619 36.133 32.529 36.914 29.859C36.943 29.769 37.154 29.154 36.988 28.209L37.034 28.276ZM28.051 21.031H25.803C25.803 22.969 25.794 24.895 25.794 26.836C25.794 28.068 25.857 29.199 25.656 29.547C25.326 30.236 24.476 30.148 24.09 30.027C23.694 29.831 23.493 29.561 23.26 29.172C23.197 29.067 23.15 28.976 23.133 28.976L21.308 30.101C21.613 30.731 22.058 31.273 22.632 31.618C23.487 32.128 24.636 32.293 25.839 32.023C26.622 31.797 27.297 31.332 27.65 30.612C28.16 29.682 28.052 28.542 28.047 27.266C28.059 25.212 28.047 23.157 28.047 21.087L28.051 21.031Z" fill="white"/>
<path d="M52.2 26.2662C51.4533 26.2662 50.758 26.1262 50.114 25.8462C49.47 25.5569 48.9473 25.1556 48.546 24.6422C48.4247 24.4836 48.364 24.3202 48.364 24.1522C48.364 23.9282 48.4713 23.7229 48.686 23.5362C48.8353 23.4149 49.008 23.3542 49.204 23.3542C49.484 23.3542 49.7313 23.4942 49.946 23.7742C50.1793 24.0916 50.492 24.3389 50.884 24.5162C51.2853 24.6936 51.724 24.7822 52.2 24.7822C52.7693 24.7822 53.1893 24.6236 53.46 24.3062C53.7307 23.9889 53.866 23.5036 53.866 22.8502V17.0262C53.866 16.7649 53.95 16.5596 54.118 16.4102C54.286 16.2609 54.51 16.1862 54.79 16.1862C55.07 16.1862 55.294 16.2656 55.462 16.4242C55.6393 16.5736 55.728 16.7742 55.728 17.0262V22.7942C55.728 23.4942 55.5833 24.1056 55.294 24.6282C55.0047 25.1509 54.594 25.5569 54.062 25.8462C53.53 26.1262 52.9093 26.2662 52.2 26.2662ZM59.8795 26.2662C59.3009 26.2662 58.7875 26.1682 58.3395 25.9722C57.9009 25.7762 57.5555 25.5056 57.3035 25.1602C57.0609 24.8056 56.9395 24.3996 56.9395 23.9422C56.9395 23.2516 57.2242 22.7009 57.7935 22.2902C58.3722 21.8796 59.1515 21.6742 60.1315 21.6742C60.9809 21.6742 61.6622 21.8562 62.1755 22.2202V21.8842C62.1755 21.4456 62.0402 21.1096 61.7695 20.8762C61.4989 20.6429 61.1069 20.5262 60.5935 20.5262C59.8282 20.5262 59.1702 20.6896 58.6195 21.0162C58.3862 21.1469 58.1855 21.2122 58.0175 21.2122C57.8122 21.2122 57.6302 21.1189 57.4715 20.9322C57.3689 20.8016 57.3175 20.6662 57.3175 20.5262C57.3175 20.2929 57.4389 20.0876 57.6815 19.9102C58.0175 19.6676 58.4422 19.4762 58.9555 19.3362C59.4689 19.1962 60.0102 19.1262 60.5795 19.1262C61.6622 19.1262 62.5115 19.3736 63.1275 19.8682C63.7529 20.3536 64.0655 21.0256 64.0655 21.8842V25.4822C64.0655 25.7249 63.9815 25.9162 63.8135 26.0562C63.6549 26.1962 63.4355 26.2662 63.1555 26.2662C62.8662 26.2662 62.6422 26.2009 62.4835 26.0702C62.3249 25.9396 62.2455 25.7529 62.2455 25.5102V25.3562C61.7135 25.9629 60.9249 26.2662 59.8795 26.2662ZM60.3135 24.9782C60.9015 24.9782 61.3589 24.8896 61.6855 24.7122C62.0215 24.5256 62.1895 24.2689 62.1895 23.9422C62.1895 23.6342 62.0215 23.3869 61.6855 23.2002C61.3495 23.0136 60.9015 22.9202 60.3415 22.9202C59.8375 22.9202 59.4455 23.0089 59.1655 23.1862C58.8949 23.3636 58.7595 23.6156 58.7595 23.9422C58.7595 24.2689 58.8949 24.5256 59.1655 24.7122C59.4362 24.8896 59.8189 24.9782 60.3135 24.9782ZM68.6232 26.2662C67.5125 26.2662 66.7425 25.6456 66.3132 24.4042L64.8292 20.1482C64.8012 20.0642 64.7872 19.9849 64.7872 19.9102C64.7872 19.6956 64.8805 19.5136 65.0672 19.3642C65.2632 19.2149 65.5152 19.1402 65.8232 19.1402C66.0099 19.1402 66.1685 19.1822 66.2992 19.2662C66.4299 19.3502 66.5232 19.4669 66.5792 19.6162L68.1472 24.1662C68.2219 24.3996 68.2965 24.5676 68.3712 24.6702C68.4459 24.7636 68.5299 24.8102 68.6232 24.8102C68.7165 24.8102 68.8005 24.7636 68.8752 24.6702C68.9499 24.5676 69.0245 24.3996 69.0992 24.1662L70.6672 19.6162C70.7232 19.4669 70.8165 19.3502 70.9472 19.2662C71.0779 19.1822 71.2365 19.1402 71.4232 19.1402C71.7405 19.1402 71.9925 19.2149 72.1792 19.3642C72.3659 19.5042 72.4592 19.6862 72.4592 19.9102C72.4592 19.9849 72.4452 20.0642 72.4172 20.1482L70.9332 24.4042C70.5039 25.6456 69.7339 26.2662 68.6232 26.2662ZM75.7799 26.2662C75.2013 26.2662 74.6879 26.1682 74.2399 25.9722C73.8013 25.7762 73.4559 25.5056 73.2039 25.1602C72.9613 24.8056 72.8399 24.3996 72.8399 23.9422C72.8399 23.2516 73.1246 22.7009 73.6939 22.2902C74.2726 21.8796 75.0519 21.6742 76.0319 21.6742C76.8813 21.6742 77.5626 21.8562 78.0759 22.2202V21.8842C78.0759 21.4456 77.9406 21.1096 77.6699 20.8762C77.3993 20.6429 77.0073 20.5262 76.4939 20.5262C75.7286 20.5262 75.0706 20.6896 74.5199 21.0162C74.2866 21.1469 74.0859 21.2122 73.9179 21.2122C73.7126 21.2122 73.5306 21.1189 73.3719 20.9322C73.2693 20.8016 73.2179 20.6662 73.2179 20.5262C73.2179 20.2929 73.3393 20.0876 73.5819 19.9102C73.9179 19.6676 74.3426 19.4762 74.8559 19.3362C75.3693 19.1962 75.9106 19.1262 76.4799 19.1262C77.5626 19.1262 78.4119 19.3736 79.0279 19.8682C79.6533 20.3536 79.9659 21.0256 79.9659 21.8842V25.4822C79.9659 25.7249 79.8819 25.9162 79.7139 26.0562C79.5553 26.1962 79.3359 26.2662 79.0559 26.2662C78.7666 26.2662 78.5426 26.2009 78.3839 26.0702C78.2253 25.9396 78.1459 25.7529 78.1459 25.5102V25.3562C77.6139 25.9629 76.8253 26.2662 75.7799 26.2662ZM76.2139 24.9782C76.8019 24.9782 77.2593 24.8896 77.5859 24.7122C77.9219 24.5256 78.0899 24.2689 78.0899 23.9422C78.0899 23.6342 77.9219 23.3869 77.5859 23.2002C77.2499 23.0136 76.8019 22.9202 76.2419 22.9202C75.7379 22.9202 75.3459 23.0089 75.0659 23.1862C74.7953 23.3636 74.6599 23.6156 74.6599 23.9422C74.6599 24.2689 74.7953 24.5256 75.0659 24.7122C75.3366 24.8896 75.7193 24.9782 76.2139 24.9782ZM86.0551 26.2662C85.1404 26.2662 84.2817 26.1169 83.4791 25.8182C82.6764 25.5102 81.9811 25.0716 81.3931 24.5022C81.2531 24.3622 81.1831 24.2036 81.1831 24.0262C81.1831 23.8209 81.2764 23.6249 81.4631 23.4382C81.6124 23.2889 81.7757 23.2142 81.9531 23.2142C82.1397 23.2142 82.3637 23.3216 82.6251 23.5362C83.0637 23.9376 83.5817 24.2502 84.1791 24.4742C84.7857 24.6889 85.4111 24.7962 86.0551 24.7962C86.6711 24.7962 87.1517 24.6936 87.4971 24.4882C87.8424 24.2736 88.0151 23.9749 88.0151 23.5922C88.0151 23.1909 87.8284 22.8689 87.4551 22.6262C87.0817 22.3742 86.4471 22.1502 85.5511 21.9542C84.1417 21.6462 83.1151 21.2402 82.4711 20.7362C81.8364 20.2322 81.5191 19.5836 81.5191 18.7902C81.5191 18.2862 81.6871 17.8382 82.0231 17.4462C82.3591 17.0449 82.8257 16.7369 83.4231 16.5222C84.0297 16.2982 84.7204 16.1862 85.4951 16.1862C86.3631 16.1862 87.1331 16.3309 87.8051 16.6202C88.4864 16.9002 89.0044 17.2969 89.3591 17.8102C89.4804 18.0062 89.5411 18.1742 89.5411 18.3142C89.5317 18.5476 89.4151 18.7482 89.1911 18.9162C89.0697 19.0002 88.9297 19.0422 88.7711 19.0422C88.4817 19.0422 88.2437 18.9302 88.0571 18.7062C87.7864 18.3796 87.4224 18.1229 86.9651 17.9362C86.5171 17.7496 86.0271 17.6562 85.4951 17.6562C84.8324 17.6562 84.3144 17.7589 83.9411 17.9642C83.5771 18.1602 83.3951 18.4356 83.3951 18.7902C83.3951 19.1449 83.5724 19.4389 83.9271 19.6722C84.2911 19.8962 84.9164 20.1109 85.8031 20.3162C86.7831 20.5496 87.5717 20.8156 88.1691 21.1142C88.7664 21.4036 89.2004 21.7489 89.4711 22.1502C89.7511 22.5516 89.8911 23.0322 89.8911 23.5922C89.8911 24.1242 89.7324 24.5956 89.4151 25.0062C89.0977 25.4076 88.6497 25.7202 88.0711 25.9442C87.4924 26.1589 86.8204 26.2662 86.0551 26.2662ZM94.9852 26.2662C93.7345 26.2662 92.7639 25.9536 92.0732 25.3282C91.3825 24.6936 91.0372 23.8116 91.0372 22.6822C91.0372 21.5529 91.3825 20.6802 92.0732 20.0642C92.7639 19.4389 93.7345 19.1262 94.9852 19.1262C95.6479 19.1262 96.2452 19.2382 96.7772 19.4622C97.3185 19.6769 97.7432 19.9849 98.0512 20.3862C98.1632 20.5262 98.2192 20.6756 98.2192 20.8342C98.2192 21.0769 98.0932 21.2916 97.8412 21.4782C97.7292 21.5622 97.5892 21.6042 97.4212 21.6042C97.2905 21.6042 97.1552 21.5762 97.0152 21.5202C96.8752 21.4549 96.7539 21.3662 96.6512 21.2542C96.4645 21.0396 96.2219 20.8762 95.9232 20.7642C95.6339 20.6429 95.3212 20.5822 94.9852 20.5822C94.3225 20.5822 93.8045 20.7689 93.4312 21.1422C93.0672 21.5062 92.8852 22.0196 92.8852 22.6822C92.8852 23.3636 93.0672 23.8909 93.4312 24.2642C93.8045 24.6282 94.3225 24.8102 94.9852 24.8102C95.7225 24.8102 96.3525 24.5629 96.8752 24.0682C97.1365 23.8069 97.3932 23.6762 97.6452 23.6762C97.8132 23.6762 97.9672 23.7322 98.1072 23.8442C98.3312 24.0216 98.4432 24.2362 98.4432 24.4882C98.4432 24.6469 98.3779 24.8009 98.2472 24.9502C97.8179 25.4076 97.3372 25.7436 96.8052 25.9582C96.2825 26.1636 95.6759 26.2662 94.9852 26.2662ZM100.495 26.2662C100.206 26.2662 99.9821 26.1916 99.8234 26.0422C99.6647 25.8929 99.5854 25.6876 99.5854 25.4262V19.9662C99.5854 19.6956 99.6601 19.4902 99.8094 19.3502C99.9681 19.2009 100.187 19.1262 100.467 19.1262C100.747 19.1262 100.967 19.2009 101.125 19.3502C101.284 19.4996 101.363 19.7049 101.363 19.9662V20.4282C101.653 20.0549 101.989 19.7702 102.371 19.5742C102.763 19.3689 103.183 19.2662 103.631 19.2662H103.939C104.238 19.2662 104.467 19.3316 104.625 19.4622C104.793 19.5836 104.877 19.7609 104.877 19.9942C104.877 20.2276 104.793 20.4096 104.625 20.5402C104.467 20.6616 104.238 20.7222 103.939 20.7222H103.463C102.838 20.7222 102.339 20.9229 101.965 21.3242C101.601 21.7162 101.419 22.2576 101.419 22.9482V25.4262C101.419 25.6876 101.335 25.8929 101.167 26.0422C100.999 26.1916 100.775 26.2662 100.495 26.2662ZM106.544 18.2582C106.199 18.2582 105.919 18.1649 105.704 17.9782C105.499 17.7822 105.396 17.5302 105.396 17.2222C105.396 16.9142 105.499 16.6669 105.704 16.4802C105.919 16.2842 106.199 16.1862 106.544 16.1862C106.889 16.1862 107.169 16.2842 107.384 16.4802C107.608 16.6669 107.72 16.9142 107.72 17.2222C107.72 17.5302 107.608 17.7822 107.384 17.9782C107.169 18.1649 106.889 18.2582 106.544 18.2582ZM106.558 26.2662C106.269 26.2662 106.045 26.1916 105.886 26.0422C105.727 25.8929 105.648 25.6876 105.648 25.4262V19.9662C105.648 19.7049 105.727 19.4996 105.886 19.3502C106.045 19.2009 106.269 19.1262 106.558 19.1262C106.838 19.1262 107.062 19.2009 107.23 19.3502C107.398 19.4996 107.482 19.7049 107.482 19.9662V25.4262C107.482 25.6876 107.398 25.8929 107.23 26.0422C107.062 26.1916 106.838 26.2662 106.558 26.2662ZM109.915 30.3122C109.626 30.3122 109.402 30.2376 109.243 30.0882C109.085 29.9389 109.005 29.7336 109.005 29.4722V19.9662C109.005 19.7049 109.085 19.4996 109.243 19.3502C109.402 19.2009 109.626 19.1262 109.915 19.1262C110.195 19.1262 110.419 19.2009 110.587 19.3502C110.755 19.4996 110.839 19.7049 110.839 19.9662V20.2462C111.241 19.8542 111.656 19.5696 112.085 19.3922C112.524 19.2149 113.019 19.1262 113.569 19.1262C114.297 19.1262 114.932 19.2709 115.473 19.5602C116.024 19.8496 116.444 20.2649 116.733 20.8062C117.032 21.3382 117.181 21.9682 117.181 22.6962C117.181 23.4149 117.032 24.0449 116.733 24.5862C116.435 25.1276 116.01 25.5429 115.459 25.8322C114.909 26.1216 114.26 26.2662 113.513 26.2662C112.953 26.2662 112.463 26.1822 112.043 26.0142C111.623 25.8369 111.227 25.5569 110.853 25.1742L110.839 29.4722C110.839 29.7336 110.755 29.9389 110.587 30.0882C110.419 30.2376 110.195 30.3122 109.915 30.3122ZM113.135 24.8102C113.826 24.8102 114.363 24.6282 114.745 24.2642C115.137 23.8909 115.333 23.3682 115.333 22.6962C115.333 22.0242 115.137 21.5062 114.745 21.1422C114.363 20.7689 113.826 20.5822 113.135 20.5822C112.417 20.5822 111.852 20.7736 111.441 21.1562C111.04 21.5296 110.839 22.0429 110.839 22.6962C110.839 23.3496 111.04 23.8676 111.441 24.2502C111.852 24.6236 112.417 24.8102 113.135 24.8102ZM123.686 24.3202C123.835 24.4416 123.91 24.5909 123.91 24.7682C123.91 24.9456 123.845 25.1276 123.714 25.3142C123.509 25.6129 123.219 25.8462 122.846 26.0142C122.473 26.1822 122.053 26.2662 121.586 26.2662C120.839 26.2662 120.251 26.0656 119.822 25.6642C119.402 25.2536 119.192 24.6936 119.192 23.9842V20.7082H118.618C118.338 20.7082 118.114 20.6429 117.946 20.5122C117.778 20.3816 117.694 20.2089 117.694 19.9942C117.694 19.7702 117.773 19.5929 117.932 19.4622C118.1 19.3316 118.329 19.2662 118.618 19.2662H119.192V17.1522C119.192 16.8909 119.276 16.6856 119.444 16.5362C119.612 16.3869 119.836 16.3122 120.116 16.3122C120.405 16.3122 120.629 16.3869 120.788 16.5362C120.947 16.6856 121.026 16.8909 121.026 17.1522V19.2662H122.37C122.659 19.2662 122.883 19.3316 123.042 19.4622C123.21 19.5929 123.294 19.7702 123.294 19.9942C123.294 20.2089 123.21 20.3816 123.042 20.5122C122.883 20.6429 122.659 20.7082 122.37 20.7082H121.026V24.1382C121.026 24.3436 121.087 24.5069 121.208 24.6282C121.339 24.7496 121.511 24.8102 121.726 24.8102C121.894 24.8102 122.039 24.7869 122.16 24.7402C122.291 24.6842 122.421 24.5956 122.552 24.4742C122.795 24.2409 123.019 24.1242 123.224 24.1242C123.373 24.1242 123.527 24.1896 123.686 24.3202Z" fill="white"/>
</svg>
