<svg width="128" height="44" viewBox="0 0 128 44" fill="none" xmlns="http://www.w3.org/2000/svg">
<rect x="0.851562" y="0.416016" width="126.933" height="43.1158" rx="8" fill="#1E1F23"/>
<path d="M38.5505 21.3001C38.5505 14.6261 33.1119 9.1875 26.4378 9.1875C19.7638 9.1875 14.3252 14.6261 14.3252 21.3001C14.3252 24.8128 15.8393 27.9742 18.2376 30.1908C18.2376 30.2029 18.2376 30.2029 18.2255 30.2151C18.3466 30.3362 18.4919 30.4331 18.6131 30.5421C18.6857 30.6027 18.7463 30.6632 18.819 30.7117C19.037 30.8934 19.2793 31.0629 19.5094 31.2325C19.5942 31.2931 19.6669 31.3415 19.7517 31.4021C19.9818 31.5596 20.2241 31.7049 20.4784 31.8381C20.5632 31.8866 20.6601 31.9472 20.7449 31.9956C20.9872 32.1289 21.2415 32.25 21.508 32.359C21.6049 32.4074 21.7018 32.4559 21.7987 32.4922C22.0652 32.6012 22.3317 32.6981 22.5981 32.7829C22.695 32.8193 22.7919 32.8556 22.8888 32.8798C23.1795 32.9646 23.4702 33.0373 23.7609 33.11C23.8457 33.1342 23.9305 33.1584 24.0274 33.1705C24.3666 33.2432 24.7057 33.2917 25.057 33.328C25.1054 33.328 25.1539 33.3401 25.2024 33.3522C25.6142 33.3886 26.026 33.4128 26.4378 33.4128C26.8497 33.4128 27.2615 33.3886 27.6612 33.3522C27.7097 33.3522 27.7581 33.3401 27.8066 33.328C28.1578 33.2917 28.497 33.2432 28.8361 33.1705C28.9209 33.1584 29.0057 33.1221 29.1026 33.11C29.3933 33.0373 29.6961 32.9767 29.9747 32.8798C30.0716 32.8435 30.1685 32.8072 30.2654 32.7829C30.5319 32.686 30.8105 32.6012 31.0649 32.4922C31.1618 32.4559 31.2587 32.4074 31.3556 32.359C31.6099 32.25 31.8643 32.1289 32.1187 31.9956C32.2156 31.9472 32.3004 31.8866 32.3852 31.8381C32.6274 31.6928 32.8697 31.5596 33.1119 31.4021C33.1967 31.3536 33.2694 31.2931 33.3542 31.2325C33.5964 31.0629 33.8266 30.8934 34.0446 30.7117C34.1173 30.6511 34.1778 30.5905 34.2505 30.5421C34.3837 30.4331 34.517 30.3241 34.6381 30.2151C34.6381 30.2029 34.6381 30.2029 34.626 30.1908C37.0364 27.9742 38.5505 24.8128 38.5505 21.3001ZM32.4215 27.3201C29.139 25.1156 23.7609 25.1156 20.4542 27.3201C19.9212 27.6714 19.4852 28.0832 19.1218 28.5314C17.2807 26.666 16.1421 24.1103 16.1421 21.3001C16.1421 15.6193 20.757 11.0044 26.4378 11.0044C32.1187 11.0044 36.7336 15.6193 36.7336 21.3001C36.7336 24.1103 35.595 26.666 33.7539 28.5314C33.4026 28.0832 32.9544 27.6714 32.4215 27.3201Z" fill="white"/>
<path d="M26.4378 15.1587C23.9304 15.1587 21.8955 17.1936 21.8955 19.7009C21.8955 22.1598 23.8214 24.1584 26.3772 24.2311H26.4862H26.571H26.5952C29.042 24.1463 30.9679 22.1598 30.98 19.7009C30.98 17.1936 28.9451 15.1587 26.4378 15.1587Z" fill="white"/>
<path d="M52.3749 27.1139C51.8523 27.1139 51.4323 26.9552 51.1149 26.6379C50.8069 26.3112 50.5876 25.8025 50.4569 25.1119L49.0709 17.9859C49.0523 17.8739 49.0429 17.7945 49.0429 17.7479C49.0429 17.5145 49.1176 17.3372 49.2669 17.2159C49.4256 17.0945 49.6403 17.0339 49.9109 17.0339C50.4709 17.0339 50.7976 17.2812 50.8909 17.7759L52.2209 25.2659C52.2583 25.4152 52.2909 25.5179 52.3189 25.5739C52.3469 25.6205 52.3843 25.6439 52.4309 25.6439C52.5429 25.6439 52.6129 25.5225 52.6409 25.2799L53.5229 18.5739C53.5883 18.0885 53.7656 17.7105 54.0549 17.4399C54.3536 17.1692 54.7316 17.0339 55.1889 17.0339C55.6463 17.0339 56.0196 17.1692 56.3089 17.4399C56.6076 17.7105 56.7896 18.0885 56.8549 18.5739L57.7369 25.2799C57.7649 25.5225 57.8349 25.6439 57.9469 25.6439C57.9936 25.6439 58.0309 25.6205 58.0589 25.5739C58.0869 25.5179 58.1196 25.4152 58.1569 25.2659L59.4869 17.7759C59.5803 17.2812 59.9069 17.0339 60.4669 17.0339C60.7376 17.0339 60.9476 17.0945 61.0969 17.2159C61.2556 17.3372 61.3349 17.5145 61.3349 17.7479C61.3349 17.7945 61.3256 17.8739 61.3069 17.9859L59.9209 25.1119C59.7903 25.8025 59.5663 26.3112 59.2489 26.6379C58.9409 26.9552 58.5256 27.1139 58.0029 27.1139C57.4803 27.1139 57.0743 26.9552 56.7849 26.6379C56.4956 26.3205 56.3043 25.8259 56.2109 25.1539L55.3849 18.8819C55.3663 18.7419 55.3429 18.6439 55.3149 18.5879C55.2869 18.5319 55.2449 18.5039 55.1889 18.5039C55.1329 18.5039 55.0909 18.5319 55.0629 18.5879C55.0349 18.6439 55.0116 18.7419 54.9929 18.8819L54.1669 25.1539C54.0736 25.8259 53.8823 26.3205 53.5929 26.6379C53.3036 26.9552 52.8976 27.1139 52.3749 27.1139ZM65.8122 27.1139C65.0095 27.1139 64.3095 26.9692 63.7122 26.6799C63.1149 26.3905 62.6529 25.9845 62.3262 25.4619C62.0089 24.9299 61.8502 24.3092 61.8502 23.5999C61.8502 22.4519 62.1815 21.5605 62.8442 20.9259C63.5162 20.2912 64.4589 19.9739 65.6722 19.9739C66.4189 19.9739 67.0769 20.0905 67.6462 20.3239C68.2249 20.5572 68.6729 20.8839 68.9902 21.3039C69.3169 21.7145 69.4802 22.1859 69.4802 22.7179C69.4802 23.1659 69.3355 23.5112 69.0462 23.7539C68.7662 23.9965 68.3649 24.1179 67.8422 24.1179H63.6282C63.6282 24.6405 63.8102 25.0372 64.1742 25.3079C64.5475 25.5692 65.0935 25.6999 65.8122 25.6999C66.5682 25.6999 67.2122 25.5319 67.7442 25.1959C68.0429 25.0092 68.2762 24.9159 68.4442 24.9159C68.6029 24.9159 68.7569 24.9905 68.9062 25.1399C69.0649 25.2985 69.1442 25.4712 69.1442 25.6579C69.1442 25.8819 69.0509 26.0592 68.8642 26.1899C68.4722 26.4885 68.0149 26.7172 67.4922 26.8759C66.9695 27.0345 66.4095 27.1139 65.8122 27.1139ZM67.2822 22.8299C67.4409 22.8299 67.5529 22.8019 67.6182 22.7459C67.6835 22.6805 67.7162 22.5779 67.7162 22.4379C67.7162 22.1112 67.5295 21.8545 67.1562 21.6679C66.7922 21.4812 66.2975 21.3879 65.6722 21.3879C65.0469 21.3879 64.5522 21.5185 64.1882 21.7799C63.8335 22.0412 63.6562 22.3912 63.6562 22.8299H67.2822ZM71.5408 27.1139C71.2515 27.1139 71.0275 27.0392 70.8688 26.8899C70.7101 26.7405 70.6308 26.5352 70.6308 26.2739V17.1879C70.6308 16.9265 70.7101 16.7212 70.8688 16.5719C71.0275 16.4225 71.2515 16.3479 71.5408 16.3479C71.8208 16.3479 72.0448 16.4225 72.2128 16.5719C72.3808 16.7212 72.4648 16.9265 72.4648 17.1879L72.4788 21.0659C72.8055 20.7112 73.1975 20.4405 73.6548 20.2539C74.1122 20.0672 74.5975 19.9739 75.1108 19.9739C76.2681 19.9739 77.1735 20.2912 77.8268 20.9259C78.4802 21.5512 78.8068 22.4239 78.8068 23.5439C78.8068 24.6639 78.4755 25.5412 77.8128 26.1759C77.1595 26.8012 76.2448 27.1139 75.0688 27.1139C74.5368 27.1139 74.0702 27.0299 73.6688 26.8619C73.2675 26.6845 72.8661 26.3952 72.4648 25.9939V26.2739C72.4648 26.5352 72.3808 26.7405 72.2128 26.8899C72.0448 27.0392 71.8208 27.1139 71.5408 27.1139ZM74.7888 25.6579C75.4701 25.6579 76.0021 25.4712 76.3848 25.0979C76.7675 24.7245 76.9588 24.2065 76.9588 23.5439C76.9588 22.8812 76.7675 22.3632 76.3848 21.9899C76.0021 21.6165 75.4701 21.4299 74.7888 21.4299C74.0608 21.4299 73.4915 21.6165 73.0808 21.9899C72.6701 22.3632 72.4648 22.8812 72.4648 23.5439C72.4648 24.2065 72.6701 24.7245 73.0808 25.0979C73.4915 25.4712 74.0608 25.6579 74.7888 25.6579ZM80.767 24.2859C80.487 24.2859 80.2677 24.2252 80.109 24.1039C79.9504 23.9732 79.871 23.7959 79.871 23.5719C79.871 23.3479 79.9457 23.1705 80.095 23.0399C80.2537 22.9092 80.4777 22.8439 80.767 22.8439H84.939C85.2284 22.8439 85.4477 22.9092 85.597 23.0399C85.7557 23.1705 85.835 23.3479 85.835 23.5719C85.835 23.7959 85.7557 23.9732 85.597 24.1039C85.4384 24.2252 85.219 24.2859 84.939 24.2859H80.767ZM90.4391 27.1139C88.9364 27.1139 87.8304 26.6799 87.1211 25.8119C86.9717 25.6159 86.8971 25.4385 86.8971 25.2799C86.8971 25.0559 87.0137 24.8599 87.2471 24.6919C87.4057 24.5892 87.5597 24.5379 87.7091 24.5379C87.9144 24.5379 88.1057 24.6265 88.2831 24.8039C88.6004 25.1212 88.9084 25.3499 89.2071 25.4899C89.5151 25.6205 89.8931 25.6859 90.3411 25.6859C90.7237 25.6859 91.0457 25.6345 91.3071 25.5319C91.5684 25.4292 91.6991 25.3032 91.6991 25.1539C91.6991 24.9672 91.5917 24.8085 91.3771 24.6779C91.1624 24.5472 90.7284 24.3792 90.0751 24.1739C89.0484 23.8565 88.3204 23.5252 87.8911 23.1799C87.4617 22.8252 87.2471 22.3865 87.2471 21.8639C87.2471 21.2759 87.4991 20.8139 88.0031 20.4779C88.5071 20.1419 89.2024 19.9739 90.0891 19.9739C90.7704 19.9739 91.3864 20.0765 91.9371 20.2819C92.4877 20.4872 92.8891 20.7625 93.1411 21.1079C93.2624 21.2665 93.3231 21.4252 93.3231 21.5839C93.3231 21.8079 93.2111 21.9899 92.9871 22.1299C92.8284 22.2325 92.6651 22.2839 92.4971 22.2839C92.2264 22.2839 91.9791 22.1719 91.7551 21.9479C91.5684 21.7705 91.3257 21.6352 91.0271 21.5419C90.7377 21.4485 90.4204 21.4019 90.0751 21.4019C89.4217 21.4019 89.0951 21.5559 89.0951 21.8639C89.0951 21.9852 89.1464 22.0925 89.2491 22.1859C89.3517 22.2792 89.5337 22.3772 89.7951 22.4799C90.0657 22.5825 90.4857 22.7225 91.0551 22.8999C91.9697 23.1799 92.6091 23.4879 92.9731 23.8239C93.3464 24.1599 93.5331 24.6032 93.5331 25.1539C93.5331 25.7419 93.2624 26.2179 92.7211 26.5819C92.1797 26.9365 91.4191 27.1139 90.4391 27.1139ZM95.8276 19.1059C95.4823 19.1059 95.2023 19.0125 94.9876 18.8259C94.7823 18.6299 94.6796 18.3779 94.6796 18.0699C94.6796 17.7619 94.7823 17.5145 94.9876 17.3279C95.2023 17.1319 95.4823 17.0339 95.8276 17.0339C96.173 17.0339 96.453 17.1319 96.6676 17.3279C96.8916 17.5145 97.0036 17.7619 97.0036 18.0699C97.0036 18.3779 96.8916 18.6299 96.6676 18.8259C96.453 19.0125 96.173 19.1059 95.8276 19.1059ZM95.8416 27.1139C95.5523 27.1139 95.3283 27.0392 95.1696 26.8899C95.011 26.7405 94.9316 26.5352 94.9316 26.2739V20.8139C94.9316 20.5525 95.011 20.3472 95.1696 20.1979C95.3283 20.0485 95.5523 19.9739 95.8416 19.9739C96.1216 19.9739 96.3456 20.0485 96.5136 20.1979C96.6816 20.3472 96.7656 20.5525 96.7656 20.8139V26.2739C96.7656 26.5352 96.6816 26.7405 96.5136 26.8899C96.3456 27.0392 96.1216 27.1139 95.8416 27.1139ZM104.001 25.1679C104.15 25.2892 104.225 25.4385 104.225 25.6159C104.225 25.7932 104.16 25.9752 104.029 26.1619C103.824 26.4605 103.534 26.6939 103.161 26.8619C102.788 27.0299 102.368 27.1139 101.901 27.1139C101.154 27.1139 100.566 26.9132 100.137 26.5119C99.717 26.1012 99.507 25.5412 99.507 24.8319V21.5559H98.933C98.653 21.5559 98.429 21.4905 98.261 21.3599C98.093 21.2292 98.009 21.0565 98.009 20.8419C98.009 20.6179 98.0884 20.4405 98.247 20.3099C98.415 20.1792 98.6437 20.1139 98.933 20.1139H99.507V17.9999C99.507 17.7385 99.591 17.5332 99.759 17.3839C99.927 17.2345 100.151 17.1599 100.431 17.1599C100.72 17.1599 100.944 17.2345 101.103 17.3839C101.262 17.5332 101.341 17.7385 101.341 17.9999V20.1139H102.685C102.974 20.1139 103.198 20.1792 103.357 20.3099C103.525 20.4405 103.609 20.6179 103.609 20.8419C103.609 21.0565 103.525 21.2292 103.357 21.3599C103.198 21.4905 102.974 21.5559 102.685 21.5559H101.341V24.9859C101.341 25.1912 101.402 25.3545 101.523 25.4759C101.654 25.5972 101.826 25.6579 102.041 25.6579C102.209 25.6579 102.354 25.6345 102.475 25.5879C102.606 25.5319 102.736 25.4432 102.867 25.3219C103.11 25.0885 103.334 24.9719 103.539 24.9719C103.688 24.9719 103.842 25.0372 104.001 25.1679ZM109.056 27.1139C108.254 27.1139 107.554 26.9692 106.956 26.6799C106.359 26.3905 105.897 25.9845 105.57 25.4619C105.253 24.9299 105.094 24.3092 105.094 23.5999C105.094 22.4519 105.426 21.5605 106.088 20.9259C106.76 20.2912 107.703 19.9739 108.916 19.9739C109.663 19.9739 110.321 20.0905 110.89 20.3239C111.469 20.5572 111.917 20.8839 112.234 21.3039C112.561 21.7145 112.724 22.1859 112.724 22.7179C112.724 23.1659 112.58 23.5112 112.29 23.7539C112.01 23.9965 111.609 24.1179 111.086 24.1179H106.872C106.872 24.6405 107.054 25.0372 107.418 25.3079C107.792 25.5692 108.338 25.6999 109.056 25.6999C109.812 25.6999 110.456 25.5319 110.988 25.1959C111.287 25.0092 111.52 24.9159 111.688 24.9159C111.847 24.9159 112.001 24.9905 112.15 25.1399C112.309 25.2985 112.388 25.4712 112.388 25.6579C112.388 25.8819 112.295 26.0592 112.108 26.1899C111.716 26.4885 111.259 26.7172 110.736 26.8759C110.214 27.0345 109.654 27.1139 109.056 27.1139ZM110.526 22.8299C110.685 22.8299 110.797 22.8019 110.862 22.7459C110.928 22.6805 110.96 22.5779 110.96 22.4379C110.96 22.1112 110.774 21.8545 110.4 21.6679C110.036 21.4812 109.542 21.3879 108.916 21.3879C108.291 21.3879 107.796 21.5185 107.432 21.7799C107.078 22.0412 106.9 22.3912 106.9 22.8299H110.526Z" fill="white"/>
</svg>
