<svg width="24" height="22" viewBox="0 0 24 22" fill="none" xmlns="http://www.w3.org/2000/svg">
<path d="M14.23 10.69C14.23 11.2829 13.9946 11.8514 13.5754 12.2707C13.1563 12.69 12.5879 12.9257 11.995 12.926C11.402 12.926 10.8332 12.6904 10.4139 12.2711C9.99458 11.8518 9.759 11.283 9.759 10.69C9.759 10.0971 9.99444 9.52857 10.4136 9.10926C10.8327 8.68996 11.4011 8.45426 11.994 8.454C12.587 8.454 13.1558 8.68958 13.5751 9.10891C13.9944 9.52824 14.23 10.097 14.23 10.69ZM16.878 0C15.532 0 13.771 0.96 11.99 2.622C10.21 0.969 8.448 0.02 7.103 0.02C6.693 0.02 6.32 0.113 5.997 0.298C4.622 1.091 4.314 3.562 5.024 6.663C1.98 7.603 0 9.106 0 10.69C0 12.28 1.99 13.787 5.043 14.72C4.339 17.833 4.653 20.308 6.031 21.1C6.351 21.287 6.721 21.375 7.133 21.375C8.478 21.375 10.24 20.415 12.021 18.751C13.801 20.405 15.563 21.354 16.908 21.354C17.318 21.354 17.691 21.264 18.014 21.079C19.388 20.287 19.697 17.816 18.987 14.714C22.02 13.782 24 12.276 24 10.69C24 9.1 22.01 7.593 18.957 6.658C19.661 3.548 19.347 1.071 17.969 0.278C17.651 0.094 17.282 0.001 16.878 0ZM16.873 1.09V1.096C17.098 1.096 17.279 1.14 17.431 1.223C18.097 1.605 18.386 3.058 18.161 4.927C18.107 5.387 18.019 5.872 17.911 6.367C16.951 6.131 15.905 5.95 14.804 5.833C14.144 4.928 13.459 4.106 12.769 3.386C14.361 1.906 15.856 1.094 16.874 1.091L16.873 1.09ZM7.103 1.11C8.115 1.11 9.617 1.918 11.213 3.39C10.527 4.11 9.843 4.927 9.193 5.832C8.086 5.949 7.039 6.13 6.08 6.37C5.968 5.88 5.885 5.406 5.826 4.95C5.596 3.082 5.88 1.63 6.54 1.243C6.73 1.153 6.94 1.115 7.103 1.11ZM11.985 4.16C12.44 4.628 12.895 5.152 13.345 5.724C12.905 5.704 12.455 5.69 12 5.69C11.54 5.69 11.085 5.7 10.64 5.724C11.08 5.152 11.535 4.629 11.985 4.16ZM12 6.786C12.74 6.786 13.477 6.82 14.202 6.879C14.608 7.461 15.004 8.082 15.385 8.739C15.757 9.379 16.095 10.029 16.403 10.685C16.095 11.34 15.757 11.995 15.39 12.635C15.01 13.295 14.617 13.923 14.21 14.505C13.482 14.568 12.744 14.603 12 14.603C11.26 14.603 10.523 14.568 9.798 14.51C9.392 13.928 8.996 13.306 8.615 12.65C8.243 12.01 7.905 11.36 7.597 10.704C7.9 10.047 8.243 9.391 8.61 8.75C8.99 8.09 9.383 7.464 9.79 6.882C10.518 6.818 11.256 6.784 12 6.784V6.786ZM8.365 7.04C8.125 7.417 7.885 7.803 7.661 8.2C7.436 8.59 7.226 8.982 7.026 9.374C6.761 8.718 6.536 8.064 6.35 7.427C6.99 7.277 7.665 7.143 8.365 7.04ZM15.625 7.04C16.32 7.143 16.99 7.27 17.631 7.427C17.451 8.059 17.226 8.709 16.971 9.36C16.771 8.97 16.561 8.577 16.331 8.186C16.106 7.794 15.866 7.412 15.626 7.04H15.625ZM18.688 7.715C19.172 7.865 19.632 8.032 20.063 8.213C21.795 8.953 22.915 9.921 22.915 10.689C22.91 11.457 21.79 12.429 20.058 13.164C19.638 13.344 19.178 13.506 18.703 13.657C18.423 12.699 18.057 11.701 17.603 10.677C18.053 9.66 18.413 8.667 18.688 7.713V7.715ZM5.293 7.719C5.571 8.679 5.938 9.676 6.393 10.699C5.943 11.716 5.581 12.709 5.307 13.663C4.823 13.513 4.363 13.345 3.937 13.163C2.205 12.426 1.085 11.457 1.085 10.689C1.085 9.921 2.205 8.947 3.937 8.213C4.357 8.033 4.817 7.871 5.293 7.719ZM16.971 11.999C17.236 12.656 17.461 13.311 17.647 13.947C17.007 14.104 16.331 14.237 15.631 14.337C15.871 13.962 16.111 13.575 16.336 13.179C16.561 12.789 16.77 12.391 16.971 11.999ZM7.026 12.019C7.226 12.411 7.436 12.802 7.666 13.194C7.896 13.584 8.131 13.966 8.371 14.337C7.676 14.235 7.006 14.107 6.365 13.951C6.545 13.321 6.771 12.669 7.025 12.018L7.026 12.019ZM17.92 15.006C18.032 15.499 18.12 15.974 18.174 16.429C18.404 18.297 18.12 19.749 17.46 20.137C17.313 20.227 17.122 20.265 16.897 20.265C15.885 20.265 14.383 19.458 12.787 17.985C13.473 17.265 14.157 16.449 14.807 15.545C15.914 15.427 16.961 15.246 17.92 15.006ZM6.09 15.016C7.05 15.25 8.096 15.431 9.197 15.548C9.857 16.453 10.542 17.275 11.232 17.994C9.637 19.477 8.14 20.289 7.122 20.289C6.902 20.284 6.716 20.239 6.569 20.157C5.903 19.777 5.614 18.323 5.839 16.454C5.893 15.994 5.982 15.51 6.09 15.016ZM10.65 15.656C11.09 15.676 11.54 15.69 11.995 15.69C12.455 15.69 12.91 15.68 13.355 15.656C12.915 16.228 12.46 16.751 12.01 17.221C11.555 16.751 11.1 16.228 10.65 15.656Z" fill="#797B83"/>
</svg>
