<svg width="74" height="76" viewBox="0 0 74 76" fill="none" xmlns="http://www.w3.org/2000/svg">
<path fill-rule="evenodd" clip-rule="evenodd" d="M59 0H74V7H61.8994L56 12.8997V14.4431L61.8555 20H74V27H59V26.9407L55.9014 24H48C45.791 24 44 22.2092 44 20V17H19.168L19.1069 17.1367L33.1313 45.0005L33 45C28.6733 45 24.8047 46.9626 22.2368 50.0464L8.57275 22.8989C3.72607 22.2063 0 18.0383 0 13C0 7.47705 4.47705 3 10 3C14.4775 3 18.2681 5.94287 19.542 10H44V7C44 4.79077 45.791 3 48 3H56L59 0ZM5 61C2.79102 61 1 62.7908 1 65V76H73V65C73 62.7908 71.209 61 69 61H49.6528C47.4058 56.27 42.585 53 37 53C31.415 53 26.5942 56.27 24.3472 61H5ZM10 17C12.209 17 14 15.2092 14 13C14 10.7908 12.209 9 10 9C7.79102 9 6 10.7908 6 13C6 15.2092 7.79102 17 10 17ZM40.5781 64.6157C40.5781 66.5918 38.9761 68.1938 37 68.1938C35.0239 68.1938 33.4219 66.5918 33.4219 64.6157C33.4219 62.6396 35.0239 61.0376 37 61.0376C38.9761 61.0376 40.5781 62.6396 40.5781 64.6157Z" fill="#797B83"/>
</svg>
