<svg width="119" height="43" viewBox="0 0 119 43" fill="none" xmlns="http://www.w3.org/2000/svg">
<rect width="119" height="43" rx="8" fill="#1E1F23"/>
<path d="M24.944 10C21.7711 10.0148 18.7332 11.2857 16.4949 13.5345C14.2566 15.7833 13 18.8271 13 22C13 25.1826 14.2643 28.2349 16.5147 30.4853C18.7652 32.7357 21.8174 34 25 34C28.1826 34 31.2348 32.7357 33.4853 30.4853C35.7357 28.2349 37 25.1826 37 22C37 18.8174 35.7357 15.7652 33.4853 13.5148C31.2348 11.2643 28.1826 10 25 10C24.9813 9.99999 24.9627 9.99999 24.944 10ZM29.906 17.224C30.006 17.222 30.227 17.247 30.371 17.364C30.4667 17.4471 30.5277 17.5631 30.542 17.689C30.558 17.782 30.578 17.995 30.562 18.161C30.382 20.059 29.6 24.663 29.202 26.788C29.034 27.688 28.703 27.989 28.382 28.018C27.686 28.083 27.157 27.558 26.482 27.116C25.426 26.423 24.829 25.992 23.804 25.316C22.619 24.536 23.387 24.106 24.062 23.406C24.239 23.222 27.309 20.429 27.369 20.176C27.376 20.144 27.383 20.026 27.313 19.964C27.243 19.902 27.139 19.923 27.064 19.94C26.958 19.964 25.271 21.08 22.003 23.285C21.523 23.615 21.09 23.775 20.701 23.765C20.273 23.757 19.449 23.524 18.836 23.325C18.084 23.08 17.487 22.951 17.539 22.536C17.566 22.32 17.864 22.099 18.432 21.873C21.93 20.349 24.262 19.344 25.43 18.859C28.762 17.473 29.455 17.232 29.906 17.224Z" fill="white"/>
<path d="M47.858 27.1612C47.578 27.1612 47.354 27.0866 47.186 26.9372C47.018 26.7879 46.934 26.5826 46.934 26.3212V18.6632H44.232C43.9613 18.6632 43.7467 18.6026 43.588 18.4812C43.4387 18.3506 43.364 18.1732 43.364 17.9492C43.364 17.7159 43.4387 17.5386 43.588 17.4172C43.7373 17.2866 43.952 17.2212 44.232 17.2212H51.498C51.778 17.2212 51.9927 17.2866 52.142 17.4172C52.2913 17.5386 52.366 17.7159 52.366 17.9492C52.366 18.1732 52.2867 18.3506 52.128 18.4812C51.9787 18.6026 51.7687 18.6632 51.498 18.6632H48.796V26.3212C48.796 26.5732 48.7073 26.7786 48.53 26.9372C48.362 27.0866 48.138 27.1612 47.858 27.1612ZM55.0949 27.1612C54.2922 27.1612 53.5922 27.0166 52.9949 26.7272C52.3976 26.4379 51.9356 26.0319 51.6089 25.5092C51.2916 24.9772 51.1329 24.3566 51.1329 23.6472C51.1329 22.4992 51.4642 21.6079 52.1269 20.9732C52.7989 20.3386 53.7416 20.0212 54.9549 20.0212C55.7016 20.0212 56.3596 20.1379 56.9289 20.3712C57.5076 20.6046 57.9556 20.9312 58.2729 21.3512C58.5996 21.7619 58.7629 22.2332 58.7629 22.7652C58.7629 23.2132 58.6182 23.5586 58.3289 23.8012C58.0489 24.0439 57.6476 24.1652 57.1249 24.1652H52.9109C52.9109 24.6879 53.0929 25.0846 53.4569 25.3552C53.8302 25.6166 54.3762 25.7472 55.0949 25.7472C55.8509 25.7472 56.4949 25.5792 57.0269 25.2432C57.3256 25.0566 57.5589 24.9632 57.7269 24.9632C57.8856 24.9632 58.0396 25.0379 58.1889 25.1872C58.3476 25.3459 58.4269 25.5186 58.4269 25.7052C58.4269 25.9292 58.3336 26.1066 58.1469 26.2372C57.7549 26.5359 57.2976 26.7646 56.7749 26.9232C56.2522 27.0819 55.6922 27.1612 55.0949 27.1612ZM56.5649 22.8772C56.7236 22.8772 56.8356 22.8492 56.9009 22.7932C56.9662 22.7279 56.9989 22.6252 56.9989 22.4852C56.9989 22.1586 56.8122 21.9019 56.4389 21.7152C56.0749 21.5286 55.5802 21.4352 54.9549 21.4352C54.3296 21.4352 53.8349 21.5659 53.4709 21.8272C53.1162 22.0886 52.9389 22.4386 52.9389 22.8772H56.5649ZM61.1035 27.1612C60.8142 27.1612 60.5902 27.0866 60.4315 26.9372C60.2729 26.7879 60.1935 26.5826 60.1935 26.3212V17.2352C60.1935 16.9739 60.2729 16.7686 60.4315 16.6192C60.5902 16.4699 60.8142 16.3952 61.1035 16.3952C61.3835 16.3952 61.6075 16.4699 61.7755 16.6192C61.9435 16.7686 62.0275 16.9739 62.0275 17.2352V26.3212C62.0275 26.5826 61.9435 26.7879 61.7755 26.9372C61.6075 27.0866 61.3835 27.1612 61.1035 27.1612ZM67.4133 27.1612C66.6106 27.1612 65.9106 27.0166 65.3133 26.7272C64.7159 26.4379 64.2539 26.0319 63.9273 25.5092C63.6099 24.9772 63.4513 24.3566 63.4513 23.6472C63.4513 22.4992 63.7826 21.6079 64.4453 20.9732C65.1173 20.3386 66.0599 20.0212 67.2733 20.0212C68.0199 20.0212 68.6779 20.1379 69.2473 20.3712C69.8259 20.6046 70.2739 20.9312 70.5913 21.3512C70.9179 21.7619 71.0813 22.2332 71.0813 22.7652C71.0813 23.2132 70.9366 23.5586 70.6473 23.8012C70.3673 24.0439 69.9659 24.1652 69.4433 24.1652H65.2293C65.2293 24.6879 65.4113 25.0846 65.7753 25.3552C66.1486 25.6166 66.6946 25.7472 67.4133 25.7472C68.1693 25.7472 68.8133 25.5792 69.3453 25.2432C69.6439 25.0566 69.8773 24.9632 70.0453 24.9632C70.2039 24.9632 70.3579 25.0379 70.5073 25.1872C70.6659 25.3459 70.7453 25.5186 70.7453 25.7052C70.7453 25.9292 70.6519 26.1066 70.4653 26.2372C70.0733 26.5359 69.6159 26.7646 69.0933 26.9232C68.5706 27.0819 68.0106 27.1612 67.4133 27.1612ZM68.8833 22.8772C69.0419 22.8772 69.1539 22.8492 69.2193 22.7932C69.2846 22.7279 69.3173 22.6252 69.3173 22.4852C69.3173 22.1586 69.1306 21.9019 68.7573 21.7152C68.3933 21.5286 67.8986 21.4352 67.2733 21.4352C66.6479 21.4352 66.1533 21.5659 65.7893 21.8272C65.4346 22.0886 65.2573 22.4386 65.2573 22.8772H68.8833ZM75.635 30.5212C74.907 30.5212 74.235 30.4139 73.619 30.1992C73.0123 29.9846 72.5363 29.6906 72.191 29.3172C72.0603 29.1772 71.995 29.0186 71.995 28.8412C71.995 28.6079 72.107 28.3979 72.331 28.2112C72.471 28.0992 72.6203 28.0432 72.779 28.0432C73.0217 28.0432 73.2923 28.1786 73.591 28.4492C73.815 28.6546 74.095 28.8132 74.431 28.9252C74.7763 29.0466 75.145 29.1072 75.537 29.1072C76.265 29.1072 76.8297 28.8879 77.231 28.4492C77.6323 28.0106 77.8237 27.4039 77.805 26.6292L77.791 26.0692C77.4737 26.4426 77.1003 26.7179 76.671 26.8952C76.251 27.0726 75.733 27.1612 75.117 27.1612C73.969 27.1612 73.073 26.8486 72.429 26.2232C71.785 25.5886 71.463 24.7112 71.463 23.5912C71.463 22.4712 71.7897 21.5986 72.443 20.9732C73.1057 20.3386 74.025 20.0212 75.201 20.0212C75.6863 20.0212 76.153 20.1192 76.601 20.3152C77.049 20.5112 77.4503 20.7866 77.805 21.1412V20.8612C77.805 20.5999 77.889 20.3946 78.057 20.2452C78.225 20.0959 78.449 20.0212 78.729 20.0212C79.009 20.0212 79.2283 20.0959 79.387 20.2452C79.555 20.3852 79.639 20.5906 79.639 20.8612V26.6292C79.639 27.3759 79.4757 28.0432 79.149 28.6312C78.8317 29.2192 78.3697 29.6812 77.763 30.0172C77.1657 30.3532 76.4563 30.5212 75.635 30.5212ZM75.481 25.7052C76.209 25.7052 76.7783 25.5186 77.189 25.1452C77.5997 24.7719 77.805 24.2539 77.805 23.5912C77.805 22.9286 77.5997 22.4106 77.189 22.0372C76.7783 21.6639 76.209 21.4772 75.481 21.4772C74.7997 21.4772 74.2677 21.6639 73.885 22.0372C73.5023 22.4106 73.311 22.9286 73.311 23.5912C73.311 24.2539 73.5023 24.7719 73.885 25.1452C74.2677 25.5186 74.7997 25.7052 75.481 25.7052ZM81.8372 27.1612C81.5479 27.1612 81.3239 27.0866 81.1652 26.9372C81.0065 26.7879 80.9272 26.5826 80.9272 26.3212V20.8612C80.9272 20.5906 81.0019 20.3852 81.1512 20.2452C81.3099 20.0959 81.5292 20.0212 81.8092 20.0212C82.0892 20.0212 82.3085 20.0959 82.4672 20.2452C82.6259 20.3946 82.7052 20.5999 82.7052 20.8612V21.3232C82.9945 20.9499 83.3305 20.6652 83.7132 20.4692C84.1052 20.2639 84.5252 20.1612 84.9732 20.1612H85.2812C85.5799 20.1612 85.8085 20.2266 85.9672 20.3572C86.1352 20.4786 86.2192 20.6559 86.2192 20.8892C86.2192 21.1226 86.1352 21.3046 85.9672 21.4352C85.8085 21.5566 85.5799 21.6172 85.2812 21.6172H84.8052C84.1799 21.6172 83.6805 21.8179 83.3072 22.2192C82.9432 22.6112 82.7612 23.1526 82.7612 23.8432V26.3212C82.7612 26.5826 82.6772 26.7879 82.5092 26.9372C82.3412 27.0866 82.1172 27.1612 81.8372 27.1612ZM89.2643 27.1612C88.6856 27.1612 88.1723 27.0632 87.7243 26.8672C87.2856 26.6712 86.9403 26.4006 86.6883 26.0552C86.4456 25.7006 86.3243 25.2946 86.3243 24.8372C86.3243 24.1466 86.609 23.5959 87.1783 23.1852C87.757 22.7746 88.5363 22.5692 89.5163 22.5692C90.3656 22.5692 91.047 22.7512 91.5603 23.1152V22.7792C91.5603 22.3406 91.425 22.0046 91.1543 21.7712C90.8836 21.5379 90.4916 21.4212 89.9783 21.4212C89.213 21.4212 88.555 21.5846 88.0043 21.9112C87.771 22.0419 87.5703 22.1072 87.4023 22.1072C87.197 22.1072 87.015 22.0139 86.8563 21.8272C86.7536 21.6966 86.7023 21.5612 86.7023 21.4212C86.7023 21.1879 86.8236 20.9826 87.0663 20.8052C87.4023 20.5626 87.827 20.3712 88.3403 20.2312C88.8536 20.0912 89.395 20.0212 89.9643 20.0212C91.047 20.0212 91.8963 20.2686 92.5123 20.7632C93.1376 21.2486 93.4503 21.9206 93.4503 22.7792V26.3772C93.4503 26.6199 93.3663 26.8112 93.1983 26.9512C93.0396 27.0912 92.8203 27.1612 92.5403 27.1612C92.251 27.1612 92.027 27.0959 91.8683 26.9652C91.7096 26.8346 91.6303 26.6479 91.6303 26.4052V26.2512C91.0983 26.8579 90.3096 27.1612 89.2643 27.1612ZM89.6983 25.8732C90.2863 25.8732 90.7436 25.7846 91.0703 25.6072C91.4063 25.4206 91.5743 25.1639 91.5743 24.8372C91.5743 24.5292 91.4063 24.2819 91.0703 24.0952C90.7343 23.9086 90.2863 23.8152 89.7263 23.8152C89.2223 23.8152 88.8303 23.9039 88.5503 24.0812C88.2796 24.2586 88.1443 24.5106 88.1443 24.8372C88.1443 25.1639 88.2796 25.4206 88.5503 25.6072C88.821 25.7846 89.2036 25.8732 89.6983 25.8732ZM95.5774 27.1612C95.2881 27.1612 95.0641 27.0866 94.9054 26.9372C94.7468 26.7879 94.6674 26.5826 94.6674 26.3212V20.8612C94.6674 20.5999 94.7468 20.3946 94.9054 20.2452C95.0641 20.0959 95.2881 20.0212 95.5774 20.0212C95.8574 20.0212 96.0814 20.0959 96.2494 20.2452C96.4174 20.3946 96.5014 20.5999 96.5014 20.8612V21.1972C96.7161 20.8239 96.9868 20.5346 97.3134 20.3292C97.6401 20.1239 97.9948 20.0212 98.3774 20.0212C98.7694 20.0212 99.1241 20.1286 99.4414 20.3432C99.7588 20.5486 99.9968 20.8332 100.155 21.1972C100.818 20.4132 101.569 20.0212 102.409 20.0212C103.156 20.0212 103.739 20.2826 104.159 20.8052C104.579 21.3279 104.789 22.0559 104.789 22.9892V26.3212C104.789 26.5826 104.705 26.7879 104.537 26.9372C104.369 27.0866 104.145 27.1612 103.865 27.1612C103.576 27.1612 103.352 27.0866 103.193 26.9372C103.035 26.7879 102.955 26.5826 102.955 26.3212V22.8772C102.955 22.4199 102.871 22.0746 102.703 21.8412C102.545 21.5986 102.307 21.4772 101.989 21.4772C101.719 21.4772 101.481 21.5519 101.275 21.7012C101.07 21.8506 100.879 22.0886 100.701 22.4152V26.3212C100.701 26.5826 100.617 26.7879 100.449 26.9372C100.281 27.0866 100.057 27.1612 99.7774 27.1612C99.4881 27.1612 99.2641 27.0866 99.1054 26.9372C98.9468 26.7879 98.8674 26.5826 98.8674 26.3212V23.1712C98.8674 22.0419 98.5454 21.4772 97.9014 21.4772C97.4628 21.4772 97.1174 21.6499 96.8654 21.9952C96.6228 22.3406 96.5014 22.8166 96.5014 23.4232V26.3212C96.5014 26.5826 96.4174 26.7879 96.2494 26.9372C96.0814 27.0866 95.8574 27.1612 95.5774 27.1612Z" fill="white"/>
</svg>
